<svg xmlns="http://www.w3.org/2000/svg" xmlns:xlink="http://www.w3.org/1999/xlink" version="1.1"><metadata>Created by FontForge 20191125 at Tue May 15 20:49:12 2018 By convertio Copyright \251 2018 by atipo. All rights reserved.</metadata><defs><font id="BasierSquare-Bold" horiz-adv-x="574"><font-face x-height="523" ascent="800" bbox="-201 -245 1184 972" cap-height="700" descent="-200" font-family="Basier Square" font-stretch="normal" font-weight="700" panose-1="0 0 8 0 0 0 0 0 0 0" underline-position="-250" underline-thickness="50" unicode-range="U+0020-25FC" units-per-em="1000"/><glyph glyph-name=".notdef" horiz-adv-x="940"/><glyph glyph-name="NULL" horiz-adv-x="0"/><glyph glyph-name="CR" horiz-adv-x="333"/><glyph glyph-name="space" horiz-adv-x="280"/><glyph d="M182 222h-117l-21 382v96h164v-96zM207 0h-164v156h164v-156z" glyph-name="exclam" horiz-adv-x="250" unicode="!"/><glyph d="M170 420h-104l-26 157v123h156v-123zM370 420h-104l-26 157v123h156v-123z" glyph-name="quotedbl" horiz-adv-x="436" unicode="&quot;"/><glyph d="M655 533v-134h-111l-18 -103h79v-134h-101l-28 -162h-142l28 162h-88l-28 -162h-142l28 162h-82v134h104l18 103h-72v134h95l28 167h142l-28 -167h88l28 167h142l-28 -167h88zM296 296h88l18 103h-88z" glyph-name="numbersign" horiz-adv-x="705" unicode="#"/><glyph d="M607 206c0 -121 -77 -201 -242 -213v-83h-98v83c-153 16 -239 107 -247 247h159c5 -56 34 -91 88 -105v161l-8 2c-137 29 -216 86 -216 210c0 53 20 98 61 134s95 57 163 64v84h98v-84c68 -9 123 -34 165 -75c43 -41 64 -91 65 -150h-159c-3 42 -27 69 -71 81v-136l13 -3 c145 -31 229 -89 229 -217zM204 508c0 -29 21 -50 63 -61v118c-42 -9 -63 -28 -63 -57zM365 275v-142c54 9 81 32 81 69s-24 60 -81 73z" glyph-name="dollar" horiz-adv-x="632" unicode="$"/><glyph d="M329 398c-30 -33 -71 -50 -122 -50s-92 17 -122 50s-45 77 -45 132s15 99 45 132s71 50 122 50s92 -17 122 -50s45 -77 45 -132s-15 -99 -45 -132zM246 0h-129v10l474 690h127v-10zM144 530c0 -56 21 -84 63 -84s63 28 63 84s-21 84 -63 84s-63 -28 -63 -84zM759 41 c-30 -33 -71 -50 -122 -50s-92 17 -122 50s-45 77 -45 132s15 99 45 132s71 50 122 50s92 -17 122 -50s45 -77 45 -132s-15 -99 -45 -132zM574 173c0 -56 21 -84 63 -84s63 28 63 84s-21 84 -63 84s-63 -28 -63 -84z" glyph-name="percent" horiz-adv-x="844" unicode="%"/><glyph d="M535 398h166v-10l-159 -210l152 -168v-10h-181l-58 65c-45 -49 -109 -74 -193 -74c-61 0 -112 18 -154 53c-42 36 -63 87 -63 152c0 68 40 127 121 178l9 5c-47 54 -70 105 -70 152c0 49 19 91 56 126s86 52 145 52h2c63 0 114 -17 151 -50s56 -74 56 -123 c0 -76 -33 -115 -110 -163l-26 -16l68 -75zM291 454l1 -1l29 18c27 17 41 37 41 58c0 31 -19 53 -55 53h-2c-32 -1 -53 -23 -53 -51c0 -25 13 -51 39 -77zM279 129c32 0 60 14 83 41l-101 113l-8 -5c-33 -21 -50 -47 -50 -78c0 -39 27 -71 76 -71z" glyph-name="ampersand" horiz-adv-x="731" unicode="&amp;"/><glyph d="M170 420h-104l-26 157v123h156v-123z" glyph-name="quotesingle" horiz-adv-x="236" unicode="'"/><glyph d="M205 770h120v-10c-43 -57 -80 -125 -111 -206c-30 -81 -45 -167 -45 -258s15 -177 45 -258c31 -81 68 -149 111 -206v-10h-120c-51 55 -94 125 -129 208c-34 83 -51 172 -51 266c0 97 17 186 51 267s77 150 129 207z" glyph-name="parenleft" horiz-adv-x="365" unicode="("/><glyph d="M40 770h120c52 -57 95 -126 129 -207s51 -170 51 -267c0 -94 -17 -183 -52 -266c-34 -83 -77 -153 -128 -208h-120v10c43 57 80 125 110 206c31 81 46 167 46 258s-15 177 -46 258c-30 81 -67 149 -110 206v10z" glyph-name="parenright" horiz-adv-x="365" unicode=")"/><glyph d="M306 342h-116l15 124l-4 2l-95 -74l-53 103l118 31v4l-118 33l53 103l95 -70l4 3l-15 119h116l-15 -119l4 -3l95 70l53 -103l-118 -33v-4l118 -31l-53 -103l-95 74l-4 -2z" glyph-name="asterisk" horiz-adv-x="486" unicode="*"/><glyph d="M320 60h-140v187h-175v132h175v187h140v-187h171v-132h-171v-187z" glyph-name="plus" horiz-adv-x="496" unicode="+"/><glyph d="M130 -144h-118v10l31 247h169v-10z" glyph-name="comma" horiz-adv-x="238" unicode=","/><glyph d="M386 224h-306v138h306v-138z" glyph-name="hyphen" horiz-adv-x="466" unicode="-"/><glyph d="M204 0h-164v156h164v-156z" glyph-name="period" horiz-adv-x="244" unicode="."/><glyph d="M161 -133h-146v10l281 860h147v-10z" glyph-name="slash" horiz-adv-x="458" unicode="/"/><glyph d="M40 352c0 109 23 197 68 262s114 98 206 98s161 -33 206 -98s68 -153 68 -262c0 -110 -23 -198 -68 -263s-114 -98 -206 -98s-161 33 -206 98s-68 153 -68 263zM431 352c0 155 -33 224 -117 224s-117 -69 -117 -224c0 -157 32 -225 117 -225s117 68 117 225z" glyph-name="zero" horiz-adv-x="628" unicode="0"/><glyph d="M365 0h-155v545h-4l-161 -120h-10v147l174 128h156v-700z" glyph-name="one" horiz-adv-x="425" unicode="1"/><glyph d="M534 0h-497v126l229 219c37 35 63 64 78 86s22 45 22 69c0 45 -33 76 -85 76c-56 0 -96 -33 -96 -102h-150c0 149 97 238 246 238c71 0 129 -19 174 -58c45 -38 68 -88 68 -149c0 -72 -35 -133 -119 -213l-161 -150v-4h291v-138z" glyph-name="two" horiz-adv-x="569" unicode="2"/><glyph d="M301 -9c-80 0 -145 19 -196 58c-50 39 -75 95 -75 170h154c0 -49 31 -93 116 -93c71 0 105 34 105 85c0 52 -35 86 -115 86h-61v135h59c63 0 95 25 95 75c0 40 -34 70 -91 70c-64 0 -96 -36 -96 -93h-155c0 70 23 125 69 166c47 41 108 62 185 62c69 0 128 -18 175 -53 s71 -81 71 -136c0 -75 -38 -125 -95 -148v-4c65 -20 117 -83 117 -158c0 -63 -22 -116 -66 -159c-43 -42 -109 -63 -196 -63z" glyph-name="three" horiz-adv-x="603" unicode="3"/><glyph d="M485 0h-155v128h-309v148l275 424h189v-436h84v-136h-84v-128zM173 268v-4h157v245h-4z" glyph-name="four" horiz-adv-x="588" unicode="4"/><glyph d="M296 -9c-75 0 -137 21 -186 63c-49 43 -73 94 -73 154h155c7 -45 39 -81 104 -81c71 0 107 52 107 111c0 55 -36 104 -107 104c-41 0 -75 -16 -100 -49h-149l27 407h432v-137h-306l-11 -133h4c31 25 73 37 127 37c70 0 127 -22 172 -65s67 -98 67 -164 c0 -72 -24 -131 -71 -178c-47 -46 -111 -69 -192 -69z" glyph-name="five" horiz-adv-x="594" unicode="5"/><glyph d="M310 -9c-179 0 -270 129 -270 348c0 113 24 203 72 271s118 102 209 102c71 0 129 -19 172 -58s68 -86 75 -143h-147c-13 43 -46 64 -100 64c-85 0 -136 -58 -136 -179h4c38 41 87 61 148 61c71 0 128 -23 171 -69c43 -45 64 -97 64 -156c0 -69 -24 -126 -71 -172 s-111 -69 -191 -69zM310 127c61 0 111 40 111 103c0 61 -43 102 -111 102c-64 0 -110 -42 -110 -102c0 -64 45 -103 110 -103z" glyph-name="six" horiz-adv-x="612" unicode="6"/><glyph d="M243 0h-166v10l291 547v4h-353v139h511v-144z" glyph-name="seven" horiz-adv-x="541" unicode="7"/><glyph d="M458 373v-4c73 -31 109 -86 109 -165c0 -67 -24 -119 -73 -156s-113 -56 -193 -57c-80 1 -144 20 -193 57s-73 89 -73 156c0 79 36 134 109 165v4c-55 29 -88 85 -88 154c0 56 23 101 68 134c46 34 105 51 177 51s131 -17 176 -51c46 -33 69 -78 69 -134 c0 -69 -33 -125 -88 -154zM212 507c0 -49 38 -72 89 -72c52 0 89 23 89 72c8 94 -186 94 -178 0zM301 125c67 1 109 33 109 89c0 53 -42 86 -109 87c-67 -1 -109 -34 -109 -87c0 -56 42 -88 109 -89z" glyph-name="eight" horiz-adv-x="602" unicode="8"/><glyph d="M291 -9c-71 0 -129 19 -172 58s-68 86 -75 143h147c13 -43 46 -64 100 -64c85 0 136 58 136 179h-4c-38 -41 -87 -61 -148 -61c-71 0 -128 23 -171 68c-43 46 -64 98 -64 157c0 69 24 126 71 172s111 69 191 69c179 0 270 -129 270 -348c0 -113 -24 -203 -72 -271 s-118 -102 -209 -102zM302 371c64 0 110 42 110 102c0 64 -45 103 -110 103c-61 0 -111 -40 -111 -103c0 -61 43 -102 111 -102z" glyph-name="nine" horiz-adv-x="612" unicode="9"/><glyph d="M204 317h-164v156h164v-156zM204 0h-164v156h164v-156z" glyph-name="colon" horiz-adv-x="244" unicode=":"/><glyph d="M204 317h-164v156h164v-156zM130 -144h-118v10l31 247h169v-10z" glyph-name="semicolon" horiz-adv-x="238" unicode=";"/><glyph d="M490 129v-141l-460 244v110l460 244v-141l-308 -156v-4z" glyph-name="less" horiz-adv-x="520" unicode="&lt;"/><glyph d="M491 347h-486v132h486v-132zM491 127h-486v132h486v-132z" glyph-name="equal" horiz-adv-x="496" unicode="="/><glyph d="M490 232l-460 -244v141l308 156v4l-308 156v141l460 -244v-110z" glyph-name="greater" horiz-adv-x="520" unicode="&gt;"/><glyph d="M331 221h-150v16c0 79 26 115 90 166l32 25c39 31 52 45 52 78c0 36 -25 68 -81 68c-59 0 -88 -29 -88 -87h-156c0 133 85 222 244 222c73 0 131 -18 174 -55s65 -83 65 -139c0 -62 -25 -113 -76 -152l-42 -33c-25 -19 -42 -34 -51 -46s-13 -28 -13 -47v-16zM339 0h-164 v156h164v-156z" glyph-name="question" horiz-adv-x="543" unicode="?"/><glyph d="M462 -100c-125 0 -228 34 -308 103c-79 69 -119 169 -119 301c0 118 42 215 127 291s188 114 309 114c110 0 201 -32 272 -96s107 -149 107 -255c0 -176 -65 -264 -195 -264c-57 0 -99 27 -110 62h-4c-31 -39 -74 -59 -129 -59c-50 0 -90 18 -121 55 c-30 37 -45 84 -45 142c0 59 15 107 46 145s71 57 122 57c45 0 92 -24 111 -60h4l7 49h98l-9 -242c-1 -36 14 -54 47 -54c53 0 79 56 79 169c0 75 -25 136 -76 183c-50 47 -119 71 -207 71c-97 0 -175 -31 -236 -92s-91 -135 -91 -222c0 -97 29 -171 87 -223 c59 -51 137 -77 235 -77c82 0 150 12 205 35v-96c-55 -25 -123 -37 -206 -37zM434 197c59 0 89 36 89 107c0 65 -39 94 -83 94c-51 0 -84 -36 -84 -105c0 -65 31 -96 78 -96z" glyph-name="at" horiz-adv-x="885" unicode="@"/><glyph d="M250 700h201l241 -690v-10h-174l-41 133h-260l-41 -133h-166v10zM345 543l-85 -272h174l-85 272h-4z" glyph-name="A" horiz-adv-x="702" unicode="A"/><glyph d="M418 0h-348v700h335c127 0 210 -69 210 -182c0 -63 -23 -110 -68 -143v-4c63 -30 94 -86 94 -169c0 -127 -84 -202 -223 -202zM226 562v-132h156c49 0 74 22 74 66s-25 66 -74 66h-156zM226 294v-155h166c59 0 89 26 89 78c0 41 -26 77 -89 77h-166z" glyph-name="B" horiz-adv-x="666" unicode="B"/><glyph d="M369 -9c-108 0 -192 34 -251 101s-88 153 -88 257c0 105 29 192 88 259s142 101 251 101c87 0 159 -26 216 -79s89 -117 94 -194h-160c-7 73 -58 131 -150 131c-116 0 -179 -77 -179 -218s63 -217 179 -217c88 0 138 52 151 125h159c-7 -75 -39 -138 -96 -189 s-128 -77 -214 -77z" glyph-name="C" horiz-adv-x="709" unicode="C"/><glyph d="M312 0h-242v700h242c105 0 192 -32 260 -97s102 -149 102 -253c0 -99 -34 -183 -101 -250s-154 -100 -261 -100zM217 560v-421h86c135 0 211 68 211 211c0 141 -76 210 -211 210h-86z" glyph-name="D" horiz-adv-x="704" unicode="D"/><glyph d="M570 0h-500v700h500v-140h-343v-129h312v-140h-312v-152h343v-139z" glyph-name="E" horiz-adv-x="610" unicode="E"/><glyph d="M227 0h-157v700h500v-140h-343v-149h312v-140h-312v-271z" glyph-name="F" horiz-adv-x="610" unicode="F"/><glyph d="M369 -9c-108 0 -192 34 -251 101s-88 153 -88 257c0 105 29 192 88 259s142 101 251 101c87 0 158 -24 214 -73c56 -48 88 -108 96 -180h-160c-12 64 -59 111 -150 111c-116 0 -179 -77 -179 -218s63 -217 179 -217c83 0 133 36 151 107h-131v139h295v-79 c0 -93 -29 -167 -88 -224c-59 -56 -134 -84 -227 -84z" glyph-name="G" horiz-adv-x="714" unicode="G"/><glyph d="M508 432v268h157v-700h-157v291h-281v-291h-157v700h157v-268h281z" glyph-name="H" horiz-adv-x="735" unicode="H"/><glyph d="M228 0h-158v700h158v-700z" glyph-name="I" horiz-adv-x="298" unicode="I"/><glyph d="M245 -9c-75 0 -133 21 -174 62c-41 42 -61 94 -61 157h153c1 -51 29 -76 84 -76c56 0 82 33 82 85v481h158v-481c0 -67 -21 -121 -64 -164c-42 -43 -101 -64 -178 -64z" glyph-name="J" horiz-adv-x="547" unicode="J"/><glyph d="M654 690l-301 -326l313 -354v-10h-186l-253 290v-290h-157v700h157v-265l243 265h184v-10z" glyph-name="K" horiz-adv-x="676" unicode="K"/><glyph d="M545 0h-475v700h157v-560h318v-140z" glyph-name="L" horiz-adv-x="555" unicode="L"/><glyph d="M222 0h-152v700h172l197 -321h4l197 321h170v-700h-152v452h-4l-209 -336h-10l-209 339h-4v-455z" glyph-name="M" horiz-adv-x="880" unicode="M"/><glyph d="M225 0h-155v700h185l258 -457h4v457h156v-700h-186l-258 454h-4v-454z" glyph-name="N" horiz-adv-x="743" unicode="N"/><glyph d="M30 350c0 105 29 191 88 258s143 101 252 101s192 -34 251 -101s89 -153 89 -258s-30 -191 -89 -258s-142 -101 -251 -101s-193 34 -252 101s-88 153 -88 258zM370 567c-117 0 -180 -76 -180 -217s64 -217 180 -217s180 76 180 217s-64 217 -180 217z" glyph-name="O" horiz-adv-x="740" unicode="O"/><glyph d="M227 0h-157v700h318c70 0 126 -22 168 -66c42 -43 63 -98 63 -165c0 -68 -21 -124 -64 -169c-42 -44 -98 -66 -167 -66h-161v-234zM227 561v-187h130c68 0 102 32 102 95c0 60 -38 92 -102 92h-130z" glyph-name="P" horiz-adv-x="649" unicode="P"/><glyph d="M710 350c0 -117 -35 -209 -105 -275l94 -138v-10h-156l-55 81c-36 -11 -75 -17 -118 -17c-109 0 -193 34 -252 101s-88 153 -88 258s29 191 88 258s143 101 252 101s192 -34 251 -101s89 -153 89 -258zM370 133c8 0 19 1 32 2l-89 131v10h155l48 -70c23 36 34 84 34 144 c0 141 -64 217 -180 217c-117 0 -180 -76 -180 -217s64 -217 180 -217z" glyph-name="Q" horiz-adv-x="740" unicode="Q"/><glyph d="M491 266l169 -256v-10h-184l-151 247h-98v-247h-157v700h320c72 0 130 -22 173 -65c44 -43 66 -96 66 -158c0 -100 -51 -176 -138 -211zM382 560h-155v-173h155c59 0 86 40 86 89c0 47 -29 84 -86 84z" glyph-name="R" horiz-adv-x="670" unicode="R"/><glyph d="M315 -9c-183 0 -286 94 -295 249h159c7 -73 57 -110 136 -110c87 0 131 24 131 72c0 39 -24 61 -85 74l-102 22c-137 29 -216 86 -216 210c0 59 25 108 75 145s116 56 198 56c81 0 147 -21 199 -64c53 -43 79 -97 80 -164h-159c-4 51 -45 88 -122 88 c-76 0 -110 -28 -110 -61c0 -31 19 -52 79 -65l95 -20c145 -31 229 -89 229 -217c0 -133 -92 -215 -292 -215z" glyph-name="S" horiz-adv-x="632" unicode="S"/><glyph d="M375 0h-158v559h-202v141h562v-141h-202v-559z" glyph-name="T" horiz-adv-x="592" unicode="T"/><glyph d="M356 -9c-86 0 -157 25 -213 74c-55 49 -83 120 -83 212v423h157v-421c0 -99 46 -148 139 -148s140 49 140 148v421h158v-423c0 -92 -28 -163 -84 -212c-55 -49 -127 -74 -214 -74z" glyph-name="U" horiz-adv-x="714" unicode="U"/><glyph d="M449 0h-189l-250 690v10h179l162 -513h4l159 513h182v-10z" glyph-name="V" horiz-adv-x="706" unicode="V"/><glyph d="M373 0h-203l-160 690v10h169l93 -483h4l112 483h174l114 -483h4l92 483h167v-10l-160 -690h-203l-98 463h-4z" glyph-name="W" horiz-adv-x="949" unicode="W"/><glyph d="M209 0h-194v10l219 340v4l-210 336v10h190l142 -243h4l142 243h185v-10l-203 -337v-4l203 -339v-10h-193l-140 243h-4z" glyph-name="X" horiz-adv-x="702" unicode="X"/><glyph d="M429 0h-158v278l-261 412v10h183l156 -264h4l152 264h183v-10l-259 -410v-280z" glyph-name="Y" horiz-adv-x="698" unicode="Y"/><glyph d="M567 0h-537v137l334 418v4h-325v141h522v-139l-333 -417v-4h339v-140z" glyph-name="Z" horiz-adv-x="597" unicode="Z"/><glyph d="M282 -178h-252v948h252v-120h-123v-708h123v-120z" glyph-name="bracketleft" horiz-adv-x="337" unicode="["/><glyph d="M443 -133h-146l-282 860v10h147l281 -860v-10z" glyph-name="backslash" horiz-adv-x="458" unicode="\"/><glyph d="M307 -178h-252v120h123v708h-123v120h252v-948z" glyph-name="bracketright" horiz-adv-x="337" unicode="]"/><glyph d="M176 310h-141v10l196 380h127l195 -380v-10h-141l-116 238h-4z" glyph-name="asciicircum" horiz-adv-x="588" unicode="^"/><glyph d="M521 -148h-491v121h491v-121z" glyph-name="underscore" horiz-adv-x="551" unicode="_"/><glyph d="M256 583h-110l-116 146v10h160l66 -146v-10z" glyph-name="grave" horiz-adv-x="286" unicode="`"/><glyph d="M208 -9c-115 0 -183 68 -183 164c0 100 70 161 210 161h112v28c0 39 -25 64 -80 64c-47 0 -76 -25 -76 -58h-144c0 105 78 182 225 182c70 0 126 -18 167 -53s62 -80 62 -135v-344h-138l-11 47h-4c-33 -37 -79 -56 -140 -56zM247 111c61 0 100 35 100 80v22h-99 c-47 0 -71 -21 -71 -50c0 -31 25 -52 70 -52z" glyph-name="a" horiz-adv-x="541" unicode="a"/><glyph d="M347 -9c-60 0 -106 20 -139 59h-4l-16 -50h-138v740h154v-267h4c33 39 79 59 139 59c65 0 116 -25 154 -76c39 -50 58 -115 58 -194c0 -80 -19 -145 -58 -196c-38 -50 -89 -75 -154 -75zM403 262c0 90 -34 135 -103 135s-103 -45 -103 -135c0 -80 32 -136 103 -136 s103 56 103 136z" glyph-name="b" horiz-adv-x="584" unicode="b"/><glyph d="M288 -9c-82 0 -146 25 -193 74c-47 50 -70 116 -70 197s23 146 68 195c45 50 109 75 191 75c75 0 133 -20 174 -60s64 -92 68 -155h-155c-5 47 -38 80 -87 80c-68 0 -102 -45 -102 -135c0 -91 34 -136 102 -136c49 0 82 33 87 80h155c-4 -63 -26 -115 -67 -155 s-98 -60 -171 -60z" glyph-name="c" horiz-adv-x="551" unicode="c"/><glyph d="M237 -9c-65 0 -116 25 -155 75c-38 51 -57 116 -57 196c0 79 19 144 57 194c39 51 90 76 155 76c60 0 106 -20 139 -59h4v267h154v-740h-138l-16 50h-4c-33 -39 -79 -59 -139 -59zM387 262c0 90 -34 135 -103 135s-103 -45 -103 -135c0 -80 32 -136 103 -136 s103 56 103 136z" glyph-name="d" unicode="d"/><glyph d="M284 -9c-80 0 -143 25 -190 76c-46 51 -69 116 -69 194s22 143 67 194s108 77 189 77c77 0 138 -24 183 -73c45 -48 67 -109 67 -182v-57h-349c1 -64 34 -104 102 -104c48 0 78 17 91 52h149c-7 -50 -32 -92 -75 -126c-42 -34 -97 -51 -165 -51zM183 317h191 c-3 53 -34 89 -93 89c-63 0 -95 -36 -98 -89z" glyph-name="e" horiz-adv-x="556" unicode="e"/><glyph d="M265 0h-154v393h-91v130h91v27c0 62 21 111 62 146c41 36 94 54 157 54h64v-132h-50c-53 0 -79 -23 -79 -68v-27h124v-130h-124v-393z" glyph-name="f" horiz-adv-x="429" unicode="f"/><glyph d="M278 -238c-71 0 -128 18 -171 53s-66 81 -67 140h151c4 -36 39 -61 87 -61c65 0 102 34 102 83v73h-4c-33 -39 -79 -59 -139 -59c-65 0 -116 25 -155 75c-38 51 -57 116 -57 195c0 80 19 145 57 195c39 51 90 76 155 76c60 0 106 -20 139 -59h4l16 50h138v-548 c0 -65 -24 -116 -72 -155s-109 -58 -184 -58zM387 261c0 80 -32 136 -103 136s-103 -56 -103 -136c0 -90 34 -135 103 -135s103 45 103 135z" glyph-name="g" unicode="g"/><glyph d="M204 0h-154v740h154v-267h4c33 39 81 59 143 59c117 0 194 -73 194 -188v-344h-154v296c0 64 -29 96 -88 96c-56 0 -99 -41 -99 -102v-290z" glyph-name="h" horiz-adv-x="585" unicode="h"/><glyph d="M209 585h-164v156h164v-156zM204 0h-154v523h154v-523z" glyph-name="i" horiz-adv-x="244" unicode="i"/><glyph d="M213 585h-164v156h164v-156zM20 -238h-70v144h38c44 0 66 24 66 73v544h154v-583c0 -113 -80 -178 -188 -178z" glyph-name="j" horiz-adv-x="248" unicode="j"/><glyph d="M540 513l-212 -237l223 -266v-10h-186l-171 214v-214h-144v740h144v-407l166 190h180v-10z" glyph-name="k" horiz-adv-x="561" unicode="k"/><glyph d="M204 0h-154v740h154v-740z" glyph-name="l" horiz-adv-x="244" unicode="l"/><glyph d="M662 532c117 0 194 -73 194 -188v-344h-154v296c0 64 -27 96 -82 96s-87 -39 -87 -102v-290h-152v296c0 64 -27 96 -82 96c-56 0 -95 -39 -95 -102v-290h-154v523h138l12 -50h4c33 39 81 59 143 59c72 0 124 -24 156 -71h3c37 47 89 71 156 71z" glyph-name="m" horiz-adv-x="896" unicode="m"/><glyph d="M204 0h-154v523h138l12 -50h4c33 39 81 59 143 59c116 0 194 -73 194 -188v-344h-154v296c0 64 -29 96 -88 96c-56 0 -95 -39 -95 -102v-290z" glyph-name="n" horiz-adv-x="581" unicode="n"/><glyph d="M478 65c-45 -49 -109 -74 -192 -74s-147 25 -193 74c-45 50 -68 115 -68 196s23 146 69 196s110 75 192 75s146 -25 192 -75s69 -115 69 -196s-23 -146 -69 -196zM390 261c0 91 -35 136 -104 136s-104 -45 -104 -136c0 -90 35 -135 104 -135s104 45 104 135z" glyph-name="o" horiz-adv-x="572" unicode="o"/><glyph d="M204 -229h-154v752h138l16 -50h4c33 39 79 59 139 59c64 0 115 -25 154 -76s58 -116 58 -195s-19 -144 -58 -195c-38 -50 -89 -75 -154 -75c-60 0 -106 20 -139 59h-4v-279zM403 261c0 80 -32 136 -103 136s-103 -56 -103 -136c0 -90 34 -135 103 -135s103 45 103 135z" glyph-name="p" horiz-adv-x="584" unicode="p"/><glyph d="M534 -229h-154v279h-4c-33 -39 -79 -59 -139 -59c-65 0 -116 25 -155 75c-38 51 -57 116 -57 195c0 80 19 145 57 195c39 51 90 76 155 76c60 0 106 -20 139 -59h4l16 50h138v-752zM387 261c0 80 -32 136 -103 136s-103 -56 -103 -136c0 -90 34 -135 103 -135 s103 45 103 135z" glyph-name="q" unicode="q"/><glyph d="M194 0h-144v523h128l12 -76h4c28 57 73 85 134 85h36v-141h-50c-73 0 -120 -50 -120 -133v-258z" glyph-name="r" horiz-adv-x="389" unicode="r"/><glyph d="M257 -9c-156 0 -229 73 -232 186h154c0 -32 26 -58 78 -58c51 0 74 17 74 38s-18 34 -53 41l-77 15c-107 20 -160 75 -160 164s80 155 215 155c66 0 119 -17 158 -50c40 -33 60 -75 60 -125h-152c1 28 -21 54 -69 54c-37 0 -61 -16 -61 -36c0 -19 13 -31 39 -36l100 -19 c93 -17 155 -61 155 -162c0 -105 -92 -167 -229 -167z" glyph-name="s" horiz-adv-x="511" unicode="s"/><glyph d="M386 0h-106c-116 0 -175 67 -175 167v225h-85v131h92v137h147v-137h125v-131h-125v-188c0 -49 20 -70 67 -70h60v-134z" glyph-name="t" horiz-adv-x="431" unicode="t"/><glyph d="M244 -9c-116 0 -194 73 -194 188v344h154v-296c0 -64 29 -96 88 -96c56 0 95 39 95 102v290h154v-523h-138l-12 50h-4c-33 -39 -81 -59 -143 -59z" glyph-name="u" horiz-adv-x="579" unicode="u"/><glyph d="M373 0h-197l-166 513v10h158l106 -378h4l103 378h156v-10z" glyph-name="v" horiz-adv-x="547" unicode="v"/><glyph d="M341 0h-203l-128 513v10h151l79 -358h4l70 358h206l70 -358h4l79 358h150v-10l-128 -513h-203l-72 358h-4z" glyph-name="w" horiz-adv-x="833" unicode="w"/><glyph d="M185 0h-170v10l160 253l-154 250v10h166l93 -165h4l93 165h166v-10l-154 -250l160 -253v-10h-170l-95 170h-4z" glyph-name="x" horiz-adv-x="564" unicode="x"/><glyph d="M10 513v10h158l106 -371h4l113 371h166v-10l-263 -742h-167v10l75 219h-26z" glyph-name="y" horiz-adv-x="567" unicode="y"/><glyph d="M467 0h-432v129l241 259v4h-240v131h429v-130l-240 -258v-4h242v-131z" glyph-name="z" horiz-adv-x="502" unicode="z"/><glyph d="M172 298v-4c53 -8 80 -42 80 -102v-175c0 -50 23 -75 70 -75h53v-120h-92c-45 0 -83 15 -114 44s-46 67 -46 113v167c0 63 -29 87 -93 90v120c64 3 93 27 93 90v167c0 46 15 84 46 113s69 44 114 44h92v-120h-53c-47 0 -70 -25 -70 -75v-175c0 -60 -27 -94 -80 -102z" glyph-name="braceleft" horiz-adv-x="430" unicode="{"/><glyph d="M204 -138h-134v898h134v-898z" glyph-name="bar" horiz-adv-x="274" unicode="|"/><glyph d="M307 613v-167c0 -63 29 -87 93 -90v-120c-64 -3 -93 -27 -93 -90v-167c0 -46 -15 -84 -46 -113s-69 -44 -114 -44h-92v120h53c47 0 70 25 70 75v175c0 60 27 94 80 102v4c-53 8 -80 42 -80 102v175c0 50 -23 75 -70 75h-53v120h92c45 0 83 -15 114 -44s46 -67 46 -113z" glyph-name="braceright" horiz-adv-x="430" unicode="}"/><glyph d="M365 197c-31 0 -64 9 -97 27l-46 25c-19 10 -37 15 -54 15c-37 0 -63 -19 -76 -57l-77 51c20 71 72 125 151 125c33 0 65 -9 96 -26l46 -25c20 -11 39 -16 57 -16c37 0 63 19 76 57l77 -51c-20 -71 -73 -125 -153 -125z" glyph-name="asciitilde" horiz-adv-x="533" unicode="~"/><glyph glyph-name="uni00A0" horiz-adv-x="280"/><glyph d="M208 367h-164v156h164v-156zM208 -177h-164v96l21 382h117l26 -382v-96z" glyph-name="exclamdown" horiz-adv-x="250" unicode="¡"/><glyph d="M329 476v-249c25 15 39 38 42 69h155c-7 -115 -76 -197 -197 -213v-83h-98v86c-131 23 -206 125 -206 266c0 143 75 245 206 266v82h98v-81c121 -16 190 -99 197 -212h-155c-3 31 -17 54 -42 69zM182 352c0 -63 16 -104 49 -123v245c-33 -19 -49 -59 -49 -122z" glyph-name="cent" horiz-adv-x="551" unicode="¢"/><glyph d="M591 0h-560v131c41 0 69 29 69 80v61h-70v133h70v88c0 63 21 115 63 156c43 42 100 63 173 63c74 0 131 -21 172 -64s62 -95 62 -158h-145c0 53 -28 97 -91 97c-55 0 -90 -39 -90 -94v-88h169v-133h-169v-65c0 -38 -11 -63 -33 -75v-4h380v-128z" glyph-name="sterling" horiz-adv-x="611" unicode="£"/><glyph d="M169 55l-68 -70l-81 79l68 71c-21 36 -31 74 -31 114c0 41 11 80 32 116l-69 72l81 79l70 -72c69 40 151 39 218 2l68 70l81 -79l-67 -69c23 -37 35 -77 35 -119c0 -43 -11 -82 -34 -117l66 -68l-81 -79l-66 68c-35 -19 -72 -29 -110 -29c-39 0 -76 10 -112 31zM281 147 c56 0 98 42 98 102c0 59 -42 101 -98 101s-100 -42 -100 -101c0 -60 43 -102 100 -102z" glyph-name="currency" horiz-adv-x="558" unicode="¤"/><glyph d="M505 700h183v-10l-172 -277h81v-111h-149l-14 -22v-47h163v-111h-163v-122h-158v122h-175v111h175v45l-15 24h-160v111h88l-179 277v10h196l148 -264h4z" glyph-name="yen" horiz-adv-x="698" unicode="¥"/><glyph d="M204 402h-134v358h134v-358zM204 -138h-134v358h134v-358z" glyph-name="brokenbar" horiz-adv-x="274" unicode="¦"/><glyph d="M308 -245c-64 0 -114 18 -151 55c-37 36 -55 82 -55 139h123c0 -45 31 -74 83 -74c48 0 77 27 77 60c0 27 -16 51 -48 73l-161 111c-77 53 -106 97 -106 169c0 59 30 106 91 140c-27 31 -41 68 -41 109c0 49 18 90 55 123s87 49 150 49c64 0 114 -18 151 -55 c37 -36 55 -82 55 -139h-123c0 45 -31 74 -83 74c-48 0 -77 -27 -77 -60c0 -27 16 -51 48 -73l161 -111c77 -53 106 -97 106 -170c0 -59 -30 -105 -91 -139c27 -31 41 -68 41 -109c0 -49 -19 -90 -56 -123s-86 -49 -149 -49zM241 215l144 -101c34 12 51 32 51 61 s-15 54 -44 74l-144 101c-34 -12 -51 -32 -51 -61s15 -54 44 -74z" glyph-name="section" horiz-adv-x="633" unicode="§"/><glyph d="M189 600h-129v130h129v-130zM390 600h-129v130h129v-130z" glyph-name="dieresis" horiz-adv-x="450" unicode="¨"/><glyph d="M760 350c-1 -105 -33 -192 -98 -259c-64 -67 -148 -100 -252 -100s-188 33 -253 100c-64 67 -96 154 -97 259c1 105 33 191 97 258c65 67 149 101 253 101s188 -34 252 -101c65 -67 97 -153 98 -258zM663 350c-1 165 -94 265 -253 265s-252 -100 -253 -265 c1 -165 94 -265 253 -265s252 100 253 265zM412 233c47 0 73 22 78 66h93c-8 -87 -69 -152 -170 -152c-119 0 -185 76 -185 200c0 123 67 201 184 201c52 0 93 -15 122 -46c29 -30 45 -66 47 -108h-93c-3 45 -29 67 -76 67c-60 0 -90 -38 -90 -114s30 -114 90 -114z" glyph-name="copyright" horiz-adv-x="820" unicode="©"/><glyph d="M144 296c-75 0 -119 44 -119 107c0 65 45 104 137 104c29 0 53 -3 72 -9v29c0 27 -17 41 -52 41c-29 0 -49 -16 -49 -37h-94c0 68 51 118 147 118c92 0 149 -50 149 -122v-225h-90l-7 31h-3c-21 -25 -52 -37 -91 -37zM169 374c40 0 65 23 65 52v3c-16 7 -36 11 -61 11 c-31 0 -49 -13 -49 -32c0 -23 15 -34 45 -34z" glyph-name="ordfeminine" horiz-adv-x="360" unicode="ª"/><glyph d="M332 66h-146l-166 212v10l166 212h146v-10l-140 -207l140 -207v-10zM592 66h-146l-166 212v10l166 212h146v-10l-140 -207l140 -207v-10z" glyph-name="guillemotleft" horiz-adv-x="622" unicode="«"/><glyph d="M386 224h-306v138h306v-138z" glyph-name="uni00AD" horiz-adv-x="466" unicode="­"/><glyph d="M428 336c-44 -45 -101 -68 -171 -68s-127 23 -171 68s-66 101 -66 168s22 123 66 168s101 68 171 68s127 -23 171 -68s66 -101 66 -168s-22 -123 -66 -168zM141 385c29 -28 67 -42 116 -42s87 14 116 42c29 29 43 68 43 119s-14 90 -43 118c-29 29 -67 43 -116 43 s-87 -14 -116 -43c-29 -28 -43 -67 -43 -118s14 -90 43 -119zM231 397h-61v208h109c45 0 78 -31 78 -74c0 -31 -11 -53 -34 -66l41 -62v-6h-66l-36 58h-31v-58zM231 551v-42h36c17 0 25 7 25 22c0 13 -8 20 -25 20h-36z" glyph-name="registered" horiz-adv-x="514" unicode="®"/><glyph d="M323 607h-293v111h293v-111z" glyph-name="overscore" horiz-adv-x="353" unicode="¯"/><glyph d="M333 415c-34 -33 -76 -50 -127 -50s-93 17 -127 50s-51 75 -51 125s17 92 51 125s76 50 127 50s93 -17 127 -50s51 -75 51 -125s-17 -92 -51 -125zM206 616c-44 0 -72 -32 -72 -76s28 -76 72 -76s72 32 72 76s-27 76 -72 76z" glyph-name="degree" horiz-adv-x="412" unicode="°"/><glyph d="M320 190h-140v137h-175v132h175v137h140v-137h171v-132h-171v-137zM491 7h-486v132h486v-132z" glyph-name="plusminus" horiz-adv-x="496" unicode="±"/><glyph d="M376 248h-340v86l157 136c53 47 68 65 68 97c0 31 -22 52 -58 52c-37 0 -62 -22 -62 -63h-106c0 96 67 156 168 156c49 0 88 -13 119 -40c31 -26 46 -60 46 -101c0 -51 -21 -86 -81 -137l-105 -89v-3h194v-94z" glyph-name="uni00B2" horiz-adv-x="411" unicode="²"/><glyph d="M220 236c-109 0 -185 54 -185 155h105c0 -33 22 -63 79 -63c49 0 72 22 72 53c0 33 -28 54 -80 54h-40v92h38c45 0 67 15 67 46c0 27 -22 47 -62 47c-44 0 -66 -24 -66 -64h-105c0 96 69 156 173 156c47 0 87 -12 119 -36c33 -24 49 -55 49 -93c0 -47 -20 -78 -60 -95v-3 c45 -16 75 -54 75 -105c0 -85 -59 -144 -179 -144z" glyph-name="uni00B3" horiz-adv-x="434" unicode="³"/><glyph d="M140 583h-110v10l66 146h160v-10z" glyph-name="acute" horiz-adv-x="286" unicode="´"/><glyph d="M346 -104h-125v457c-52 0 -96 18 -133 55s-55 82 -55 134s18 96 55 133s81 55 133 55h369v-109h-59v-725h-125v725h-60v-725z" glyph-name="paragraph" horiz-adv-x="600" unicode="¶"/><glyph d="M204 220h-164v156h164v-156z" glyph-name="middot" horiz-adv-x="244" unicode="·"/><glyph d="M163 -228c-77 0 -133 41 -133 102h90c0 -16 18 -30 42 -30c25 0 47 11 47 30c0 20 -15 30 -44 30h-32l-25 31l40 79h101l-36 -50c59 -5 97 -41 97 -92c0 -59 -56 -100 -147 -100z" glyph-name="cedilla" horiz-adv-x="340" unicode="¸"/><glyph d="M260 248h-105v343h-4l-109 -82h-7v104l118 87h107v-452z" glyph-name="uni00B9" horiz-adv-x="295" unicode="¹"/><glyph d="M25 473c0 104 63 176 170 176c54 0 96 -16 126 -49c30 -32 45 -74 45 -127s-15 -95 -45 -128s-72 -49 -126 -49c-108 0 -170 72 -170 177zM195 384c45 0 68 30 68 89s-23 88 -68 88s-67 -29 -67 -88s22 -89 67 -89z" glyph-name="ordmasculine" horiz-adv-x="391" unicode="º"/><glyph d="M342 278l-166 -212h-146v10l140 207l-140 207v10h146l166 -212v-10zM602 278l-166 -212h-146v10l140 207l-140 207v10h146l166 -212v-10z" glyph-name="guillemotright" horiz-adv-x="622" unicode="»"/><glyph d="M260 248h-105v343h-4l-109 -82h-7v104l118 87h107v-452zM286 0h-119v10l434 690h117v-10zM827 0h-105v80h-207v102l171 270h141v-278h52v-94h-52v-80zM619 178v-4h103v159h-4z" glyph-name="onequarter" horiz-adv-x="914" unicode="¼"/><glyph d="M260 248h-105v343h-4l-109 -82h-7v104l118 87h107v-452zM286 0h-119v10l434 690h117v-10zM920 0h-340v86l157 136c53 47 68 65 68 97c0 31 -22 52 -58 52c-37 0 -62 -22 -62 -63h-106c0 96 67 156 168 156c49 0 88 -13 119 -40c31 -26 46 -60 46 -101 c0 -51 -21 -86 -81 -137l-105 -89v-3h194v-94z" glyph-name="onehalf" horiz-adv-x="955" unicode="½"/><glyph d="M220 236c-109 0 -185 54 -185 155h105c0 -33 22 -63 79 -63c49 0 72 22 72 53c0 33 -28 54 -80 54h-40v92h38c45 0 67 15 67 46c0 27 -22 47 -62 47c-44 0 -66 -24 -66 -64h-105c0 96 69 156 173 156c47 0 87 -12 119 -36c33 -24 49 -55 49 -93c0 -47 -20 -78 -60 -95v-3 c45 -16 75 -54 75 -105c0 -85 -59 -144 -179 -144zM376 0h-119v10l434 690h117v-10zM917 0h-105v80h-207v102l171 270h141v-278h52v-94h-52v-80zM709 178v-4h103v159h-4z" glyph-name="threequarters" horiz-adv-x="1004" unicode="¾"/><glyph d="M368 367h-164v156h164v-156zM269 -186c-73 0 -131 18 -174 55s-65 83 -65 139c0 62 25 113 76 152l42 33c25 19 41 34 50 46s14 28 14 47v16h150v-16c0 -79 -26 -115 -90 -166l-32 -25c-39 -31 -52 -45 -52 -78c0 -36 25 -68 81 -68c59 0 88 29 88 87h156 c0 -133 -85 -222 -244 -222z" glyph-name="questiondown" horiz-adv-x="543" unicode="¿"/><glyph d="M432 770v-10h-110l-116 146v10h160zM250 700h201l241 -690v-10h-174l-41 133h-260l-41 -133h-166v10zM345 543l-85 -272h174l-85 272h-4z" glyph-name="Agrave" horiz-adv-x="702" unicode="À"/><glyph d="M509 916v-10l-116 -146h-110v10l66 146h160zM250 700h201l241 -690v-10h-174l-41 133h-260l-41 -133h-166v10zM345 543l-85 -272h174l-85 272h-4z" glyph-name="Aacute" horiz-adv-x="702" unicode="Á"/><glyph d="M355 816h-4l-56 -54h-118v10l94 142h163l94 -142v-10h-118zM250 700h201l241 -690v-10h-174l-41 133h-260l-41 -133h-166v10zM345 543l-85 -272h174l-85 272h-4z" glyph-name="Acircumflex" horiz-adv-x="702" unicode="Â"/><glyph d="M285 799c-18 0 -27 -12 -27 -37h-92v15c0 83 41 129 108 129c21 0 45 -6 70 -19l16 -8c17 -9 29 -13 36 -13c19 0 24 11 24 38h91v-15c0 -86 -36 -129 -107 -129c-23 0 -45 6 -68 18l-15 8c-16 9 -28 13 -36 13zM250 700h201l241 -690v-10h-174l-41 133h-260l-41 -133 h-166v10zM345 543l-85 -272h174l-85 272h-4z" glyph-name="Atilde" horiz-adv-x="702" unicode="Ã"/><glyph d="M188 907h129v-130h-129v130zM389 907h129v-130h-129v130zM250 700h201l241 -690v-10h-174l-41 133h-260l-41 -133h-166v10zM345 543l-85 -272h174l-85 272h-4z" glyph-name="Adieresis" horiz-adv-x="702" unicode="Ä"/><glyph d="M349 745c-67 0 -117 48 -117 113c0 67 49 114 117 114c69 0 118 -47 118 -114s-49 -113 -118 -113zM348 901c-56 3 -56 -89 0 -85c59 -4 59 88 0 85zM250 700h201l241 -690v-10h-174l-41 133h-260l-41 -133h-166v10zM345 543l-85 -272h174l-85 272h-4z" glyph-name="Aring" horiz-adv-x="702" unicode="Å"/><glyph d="M176 0h-166v10l240 690h626v-140h-376l45 -129h300v-140h-251l53 -152h229v-139h-358l-41 133h-260zM345 543l-85 -272h174l-85 272h-4z" glyph-name="AE" horiz-adv-x="916" unicode="Æ"/><glyph d="M369 132c88 0 138 52 151 125h159c-7 -69 -35 -129 -85 -179c-49 -49 -112 -78 -189 -85l-21 -29c59 -5 97 -41 97 -92c0 -59 -56 -100 -147 -100c-77 0 -133 41 -133 102h90c0 -16 18 -30 42 -30c25 0 47 11 47 30c0 20 -15 30 -44 30h-32l-25 31l30 60 c-89 13 -158 51 -207 116c-48 65 -72 144 -72 238c0 105 29 192 88 259s142 101 251 101c87 0 159 -26 216 -79s89 -117 94 -194h-160c-7 73 -58 131 -150 131c-116 0 -179 -77 -179 -218s63 -217 179 -217z" glyph-name="Ccedilla" horiz-adv-x="709" unicode="Ç"/><glyph d="M416 760h-110l-116 146v10h160l66 -146v-10zM570 0h-500v700h500v-140h-343v-129h312v-140h-312v-152h343v-139z" glyph-name="Egrave" horiz-adv-x="610" unicode="È"/><glyph d="M377 760h-110v10l66 146h160v-10zM570 0h-500v700h500v-140h-343v-129h312v-140h-312v-152h343v-139z" glyph-name="Eacute" horiz-adv-x="610" unicode="É"/><glyph d="M279 762h-118v10l94 142h163l94 -142v-10h-118l-55 54h-4zM570 0h-500v700h500v-140h-343v-129h312v-140h-312v-152h343v-139z" glyph-name="Ecircumflex" horiz-adv-x="610" unicode="Ê"/><glyph d="M301 777h-129v130h129v-130zM502 777h-129v130h129v-130zM570 0h-500v700h500v-140h-343v-129h312v-140h-312v-152h343v-139z" glyph-name="Edieresis" horiz-adv-x="610" unicode="Ë"/><glyph d="M233 760h-110l-116 146v10h160l66 -146v-10zM228 0h-158v700h158v-700z" glyph-name="Igrave" horiz-adv-x="298" unicode="Ì"/><glyph d="M194 760h-110v10l66 146h160v-10zM228 0h-158v700h158v-700z" glyph-name="Iacute" horiz-adv-x="298" unicode="Í"/><glyph d="M96 762h-118v10l94 142h163l94 -142v-10h-118l-55 54h-4zM228 0h-158v700h158v-700z" glyph-name="Icircumflex" horiz-adv-x="298" unicode="Î"/><glyph d="M118 777h-129v130h129v-130zM319 777h-129v130h129v-130zM228 0h-158v700h158v-700z" glyph-name="Idieresis" horiz-adv-x="298" unicode="Ï"/><glyph d="M111 700h242c105 0 192 -32 260 -97s102 -149 102 -253c0 -99 -34 -183 -101 -250s-154 -100 -261 -100h-242v297h-71v131h71v272zM258 139h86c135 0 211 68 211 211c0 141 -76 210 -211 210h-86v-132h142v-131h-142v-158z" glyph-name="Eth" horiz-adv-x="745" unicode="Ð"/><glyph d="M453 760c-23 0 -45 6 -68 18l-15 8c-16 9 -28 13 -36 13c-18 0 -27 -12 -27 -37h-92v15c0 83 41 129 108 129c21 0 45 -6 70 -19l16 -8c17 -9 29 -13 36 -13c19 0 24 11 24 38h91v-15c0 -86 -36 -129 -107 -129zM225 0h-155v700h185l258 -457h4v457h156v-700h-186 l-258 454h-4v-454z" glyph-name="Ntilde" horiz-adv-x="743" unicode="Ñ"/><glyph d="M452 760h-110l-116 146v10h160l66 -146v-10zM30 350c0 105 29 191 88 258s143 101 252 101s192 -34 251 -101s89 -153 89 -258s-30 -191 -89 -258s-142 -101 -251 -101s-193 34 -252 101s-88 153 -88 258zM370 567c-117 0 -180 -76 -180 -217s64 -217 180 -217 s180 76 180 217s-64 217 -180 217z" glyph-name="Ograve" horiz-adv-x="740" unicode="Ò"/><glyph d="M413 760h-110v10l66 146h160v-10zM30 350c0 105 29 191 88 258s143 101 252 101s192 -34 251 -101s89 -153 89 -258s-30 -191 -89 -258s-142 -101 -251 -101s-193 34 -252 101s-88 153 -88 258zM370 567c-117 0 -180 -76 -180 -217s64 -217 180 -217s180 76 180 217 s-64 217 -180 217z" glyph-name="Oacute" horiz-adv-x="740" unicode="Ó"/><glyph d="M315 762h-118v10l94 142h163l94 -142v-10h-118l-55 54h-4zM30 350c0 105 29 191 88 258s143 101 252 101s192 -34 251 -101s89 -153 89 -258s-30 -191 -89 -258s-142 -101 -251 -101s-193 34 -252 101s-88 153 -88 258zM370 567c-117 0 -180 -76 -180 -217 s64 -217 180 -217s180 76 180 217s-64 217 -180 217z" glyph-name="Ocircumflex" horiz-adv-x="740" unicode="Ô"/><glyph d="M424 760c-23 0 -45 6 -68 18l-15 8c-16 9 -28 13 -36 13c-18 0 -27 -12 -27 -37h-92v15c0 83 41 129 108 129c21 0 45 -6 70 -19l16 -8c17 -9 29 -13 36 -13c19 0 24 11 24 38h91v-15c0 -86 -36 -129 -107 -129zM30 350c0 105 29 191 88 258s143 101 252 101 s192 -34 251 -101s89 -153 89 -258s-30 -191 -89 -258s-142 -101 -251 -101s-193 34 -252 101s-88 153 -88 258zM370 567c-117 0 -180 -76 -180 -217s64 -217 180 -217s180 76 180 217s-64 217 -180 217z" glyph-name="Otilde" horiz-adv-x="740" unicode="Õ"/><glyph d="M337 777h-129v130h129v-130zM538 777h-129v130h129v-130zM30 350c0 105 29 191 88 258s143 101 252 101s192 -34 251 -101s89 -153 89 -258s-30 -191 -89 -258s-142 -101 -251 -101s-193 34 -252 101s-88 153 -88 258zM370 567c-117 0 -180 -76 -180 -217 s64 -217 180 -217s180 76 180 217s-64 217 -180 217z" glyph-name="Odieresis" horiz-adv-x="740" unicode="Ö"/><glyph d="M234 226l-136 -136l-93 93l136 136l-136 135l93 93l136 -135l135 135l93 -93l-135 -135l135 -136l-93 -93z" glyph-name="multiply" horiz-adv-x="467" unicode="×"/><glyph d="M575 738h145v-10l-92 -128c55 -63 82 -147 82 -250c0 -105 -30 -191 -89 -258s-142 -101 -251 -101c-59 0 -111 10 -156 31l-51 -70h-143v10l95 133c-57 66 -85 151 -85 255c0 105 29 191 88 258s143 101 252 101c59 0 113 -11 160 -33zM190 350c0 -48 7 -88 21 -120 l233 324c-21 9 -46 13 -74 13c-117 0 -180 -76 -180 -217zM550 350c0 45 -6 84 -19 115l-230 -321c21 -7 44 -11 69 -11c116 0 180 76 180 217z" glyph-name="Oslash" horiz-adv-x="740" unicode="Ø"/><glyph d="M439 760h-110l-116 146v10h160l66 -146v-10zM356 -9c-86 0 -157 25 -213 74c-55 49 -83 120 -83 212v423h157v-421c0 -99 46 -148 139 -148s140 49 140 148v421h158v-423c0 -92 -28 -163 -84 -212c-55 -49 -127 -74 -214 -74z" glyph-name="Ugrave" horiz-adv-x="714" unicode="Ù"/><glyph d="M400 760h-110v10l66 146h160v-10zM356 -9c-86 0 -157 25 -213 74c-55 49 -83 120 -83 212v423h157v-421c0 -99 46 -148 139 -148s140 49 140 148v421h158v-423c0 -92 -28 -163 -84 -212c-55 -49 -127 -74 -214 -74z" glyph-name="Uacute" horiz-adv-x="714" unicode="Ú"/><glyph d="M302 762h-118v10l94 142h163l94 -142v-10h-118l-55 54h-4zM356 -9c-86 0 -157 25 -213 74c-55 49 -83 120 -83 212v423h157v-421c0 -99 46 -148 139 -148s140 49 140 148v421h158v-423c0 -92 -28 -163 -84 -212c-55 -49 -127 -74 -214 -74z" glyph-name="Ucircumflex" horiz-adv-x="714" unicode="Û"/><glyph d="M324 777h-129v130h129v-130zM525 777h-129v130h129v-130zM356 -9c-86 0 -157 25 -213 74c-55 49 -83 120 -83 212v423h157v-421c0 -99 46 -148 139 -148s140 49 140 148v421h158v-423c0 -92 -28 -163 -84 -212c-55 -49 -127 -74 -214 -74z" glyph-name="Udieresis" horiz-adv-x="714" unicode="Ü"/><glyph d="M401 760h-110v10l66 146h160v-10zM429 0h-158v278l-261 412v10h183l156 -264h4l152 264h183v-10l-259 -410v-280z" glyph-name="Yacute" horiz-adv-x="698" unicode="Ý"/><glyph d="M228 0h-158v700h158v-90h160c70 0 126 -22 168 -66c42 -43 63 -98 63 -165c0 -68 -21 -124 -64 -169c-42 -44 -98 -66 -167 -66h-160v-144zM228 471v-187h129c68 0 102 32 102 95c0 60 -38 92 -102 92h-129z" glyph-name="Thorn" horiz-adv-x="649" unicode="Þ"/><glyph d="M455 -9c-137 0 -215 73 -218 188h144c0 -42 25 -63 74 -63c37 0 60 16 60 37c0 25 -20 37 -68 53l-64 20c-87 27 -130 75 -130 142c0 147 172 125 172 190c0 40 -35 60 -106 60c-73 0 -115 -39 -115 -108v-510h-154v510c0 73 25 132 74 175c50 43 115 65 195 65 c159 0 251 -75 251 -191c0 -158 -176 -138 -176 -192c0 -16 13 -28 39 -36l97 -31c92 -29 130 -76 130 -149c0 -96 -78 -160 -205 -160z" glyph-name="germandbls" horiz-adv-x="685" unicode="ß"/><glyph d="M360 583h-110l-116 146v10h160l66 -146v-10zM208 -9c-115 0 -183 68 -183 164c0 100 70 161 210 161h112v28c0 39 -25 64 -80 64c-47 0 -76 -25 -76 -58h-144c0 105 78 182 225 182c70 0 126 -18 167 -53s62 -80 62 -135v-344h-138l-11 47h-4c-33 -37 -79 -56 -140 -56z M247 111c61 0 100 35 100 80v22h-99c-47 0 -71 -21 -71 -50c0 -31 25 -52 70 -52z" glyph-name="agrave" horiz-adv-x="541" unicode="à"/><glyph d="M321 583h-110v10l66 146h160v-10zM208 -9c-115 0 -183 68 -183 164c0 100 70 161 210 161h112v28c0 39 -25 64 -80 64c-47 0 -76 -25 -76 -58h-144c0 105 78 182 225 182c70 0 126 -18 167 -53s62 -80 62 -135v-344h-138l-11 47h-4c-33 -37 -79 -56 -140 -56zM247 111 c61 0 100 35 100 80v22h-99c-47 0 -71 -21 -71 -50c0 -31 25 -52 70 -52z" glyph-name="aacute" horiz-adv-x="541" unicode="á"/><glyph d="M223 585h-118v10l94 142h163l94 -142v-10h-118l-55 54h-4zM208 -9c-115 0 -183 68 -183 164c0 100 70 161 210 161h112v28c0 39 -25 64 -80 64c-47 0 -76 -25 -76 -58h-144c0 105 78 182 225 182c70 0 126 -18 167 -53s62 -80 62 -135v-344h-138l-11 47h-4 c-33 -37 -79 -56 -140 -56zM247 111c61 0 100 35 100 80v22h-99c-47 0 -71 -21 -71 -50c0 -31 25 -52 70 -52z" glyph-name="acircumflex" horiz-adv-x="541" unicode="â"/><glyph d="M332 583c-23 0 -45 6 -68 18l-15 8c-16 9 -28 13 -36 13c-18 0 -27 -12 -27 -37h-92v15c0 83 41 129 108 129c21 0 45 -6 70 -19l16 -8c17 -9 29 -13 36 -13c19 0 24 11 24 38h91v-15c0 -86 -36 -129 -107 -129zM208 -9c-115 0 -183 68 -183 164c0 100 70 161 210 161 h112v28c0 39 -25 64 -80 64c-47 0 -76 -25 -76 -58h-144c0 105 78 182 225 182c70 0 126 -18 167 -53s62 -80 62 -135v-344h-138l-11 47h-4c-33 -37 -79 -56 -140 -56zM247 111c61 0 100 35 100 80v22h-99c-47 0 -71 -21 -71 -50c0 -31 25 -52 70 -52z" glyph-name="atilde" horiz-adv-x="541" unicode="ã"/><glyph d="M245 600h-129v130h129v-130zM446 600h-129v130h129v-130zM208 -9c-115 0 -183 68 -183 164c0 100 70 161 210 161h112v28c0 39 -25 64 -80 64c-47 0 -76 -25 -76 -58h-144c0 105 78 182 225 182c70 0 126 -18 167 -53s62 -80 62 -135v-344h-138l-11 47h-4 c-33 -37 -79 -56 -140 -56zM247 111c61 0 100 35 100 80v22h-99c-47 0 -71 -21 -71 -50c0 -31 25 -52 70 -52z" glyph-name="adieresis" horiz-adv-x="541" unicode="ä"/><glyph d="M277 568c-67 0 -117 48 -117 113c0 67 49 114 117 114c69 0 118 -47 118 -114s-49 -113 -118 -113zM276 639c59 -4 59 88 0 85c-56 3 -56 -89 0 -85zM208 -9c-115 0 -183 68 -183 164c0 100 70 161 210 161h112v28c0 39 -25 64 -80 64c-47 0 -76 -25 -76 -58h-144 c0 105 78 182 225 182c70 0 126 -18 167 -53s62 -80 62 -135v-344h-138l-11 47h-4c-33 -37 -79 -56 -140 -56zM247 111c61 0 100 35 100 80v22h-99c-47 0 -71 -21 -71 -50c0 -31 25 -52 70 -52z" glyph-name="aring" horiz-adv-x="541" unicode="å"/><glyph d="M213 -9c-116 0 -188 68 -188 164c0 100 70 161 210 161h112v28c0 39 -25 64 -80 64c-47 0 -76 -25 -76 -58h-144c0 105 78 182 225 182c69 0 125 -19 167 -58h4c41 39 93 58 158 58c77 0 138 -24 183 -73c45 -48 67 -109 67 -182v-57h-349c1 -64 34 -104 102 -104 c48 0 78 17 91 52h149c-7 -50 -32 -92 -75 -126c-42 -34 -97 -51 -165 -51c-85 0 -149 29 -193 87h-4c-41 -58 -106 -87 -194 -87zM503 317h191c-3 53 -34 89 -93 89c-63 0 -95 -36 -98 -89zM247 111c61 0 100 35 100 80v22h-98c-48 0 -72 -21 -72 -50c0 -31 25 -52 70 -52z" glyph-name="ae" horiz-adv-x="876" unicode="æ"/><glyph d="M284 126c49 0 82 33 87 80h155c-7 -115 -78 -200 -202 -213l-21 -29c59 -5 97 -41 97 -92c0 -59 -56 -100 -147 -100c-77 0 -133 41 -133 102h90c0 -16 18 -30 42 -30c25 0 47 11 47 30c0 20 -15 30 -44 30h-32l-25 31l31 61c-128 24 -204 126 -204 266 c0 81 23 146 68 195c45 50 109 75 191 75c75 0 133 -20 174 -60s64 -92 68 -155h-155c-5 47 -38 80 -87 80c-68 0 -102 -45 -102 -135c0 -91 34 -136 102 -136z" glyph-name="ccedilla" horiz-adv-x="551" unicode="ç"/><glyph d="M363 583h-110l-116 146v10h160l66 -146v-10zM284 -9c-80 0 -143 25 -190 76c-46 51 -69 116 -69 194s22 143 67 194s108 77 189 77c77 0 138 -24 183 -73c45 -48 67 -109 67 -182v-57h-349c1 -64 34 -104 102 -104c48 0 78 17 91 52h149c-7 -50 -32 -92 -75 -126 c-42 -34 -97 -51 -165 -51zM183 317h191c-3 53 -34 89 -93 89c-63 0 -95 -36 -98 -89z" glyph-name="egrave" horiz-adv-x="556" unicode="è"/><glyph d="M324 583h-110v10l66 146h160v-10zM284 -9c-80 0 -143 25 -190 76c-46 51 -69 116 -69 194s22 143 67 194s108 77 189 77c77 0 138 -24 183 -73c45 -48 67 -109 67 -182v-57h-349c1 -64 34 -104 102 -104c48 0 78 17 91 52h149c-7 -50 -32 -92 -75 -126 c-42 -34 -97 -51 -165 -51zM183 317h191c-3 53 -34 89 -93 89c-63 0 -95 -36 -98 -89z" glyph-name="eacute" horiz-adv-x="556" unicode="é"/><glyph d="M226 585h-118v10l94 142h163l94 -142v-10h-118l-55 54h-4zM284 -9c-80 0 -143 25 -190 76c-46 51 -69 116 -69 194s22 143 67 194s108 77 189 77c77 0 138 -24 183 -73c45 -48 67 -109 67 -182v-57h-349c1 -64 34 -104 102 -104c48 0 78 17 91 52h149 c-7 -50 -32 -92 -75 -126c-42 -34 -97 -51 -165 -51zM183 317h191c-3 53 -34 89 -93 89c-63 0 -95 -36 -98 -89z" glyph-name="ecircumflex" horiz-adv-x="556" unicode="ê"/><glyph d="M248 600h-129v130h129v-130zM449 600h-129v130h129v-130zM284 -9c-80 0 -143 25 -190 76c-46 51 -69 116 -69 194s22 143 67 194s108 77 189 77c77 0 138 -24 183 -73c45 -48 67 -109 67 -182v-57h-349c1 -64 34 -104 102 -104c48 0 78 17 91 52h149 c-7 -50 -32 -92 -75 -126c-42 -34 -97 -51 -165 -51zM183 317h191c-3 53 -34 89 -93 89c-63 0 -95 -36 -98 -89z" glyph-name="edieresis" horiz-adv-x="556" unicode="ë"/><glyph d="M209 583h-110l-116 146v10h160l66 -146v-10zM204 0h-154v523h154v-523z" glyph-name="igrave" horiz-adv-x="244" unicode="ì"/><glyph d="M170 583h-110v10l66 146h160v-10zM204 0h-154v523h154v-523z" glyph-name="iacute" horiz-adv-x="244" unicode="í"/><glyph d="M72 585h-118v10l94 142h163l94 -142v-10h-118l-55 54h-4zM204 0h-154v523h154v-523z" glyph-name="icircumflex" horiz-adv-x="244" unicode="î"/><glyph d="M94 600h-129v130h129v-130zM295 600h-129v130h129v-130zM204 0h-154v523h154v-523z" glyph-name="idieresis" horiz-adv-x="244" unicode="ï"/><glyph d="M547 263v-1v-1c0 -81 -23 -146 -69 -196c-45 -49 -109 -74 -192 -74s-147 25 -193 74c-45 50 -68 115 -68 196s23 146 69 196s110 75 192 75c12 0 21 0 26 -1c-16 20 -34 40 -53 59l-127 -50l-30 76l87 35c-40 31 -80 58 -121 79v10h147c25 -14 50 -30 76 -49l115 46 l30 -77l-72 -29c113 -104 182 -232 183 -367v-1zM390 261c0 91 -35 136 -104 136s-104 -45 -104 -136c0 -90 35 -135 104 -135s104 45 104 135z" glyph-name="eth" horiz-adv-x="572" unicode="ð"/><glyph d="M385 583c-23 0 -45 6 -68 18l-15 8c-16 9 -28 13 -36 13c-18 0 -27 -12 -27 -37h-92v15c0 83 41 129 108 129c21 0 45 -6 70 -19l16 -8c17 -9 29 -13 36 -13c19 0 24 11 24 38h91v-15c0 -86 -36 -129 -107 -129zM204 0h-154v523h138l12 -50h4c33 39 81 59 143 59 c116 0 194 -73 194 -188v-344h-154v296c0 64 -29 96 -88 96c-56 0 -95 -39 -95 -102v-290z" glyph-name="ntilde" horiz-adv-x="581" unicode="ñ"/><glyph d="M368 583h-110l-116 146v10h160l66 -146v-10zM478 65c-45 -49 -109 -74 -192 -74s-147 25 -193 74c-45 50 -68 115 -68 196s23 146 69 196s110 75 192 75s146 -25 192 -75s69 -115 69 -196s-23 -146 -69 -196zM390 261c0 91 -35 136 -104 136s-104 -45 -104 -136 c0 -90 35 -135 104 -135s104 45 104 135z" glyph-name="ograve" horiz-adv-x="572" unicode="ò"/><glyph d="M329 583h-110v10l66 146h160v-10zM478 65c-45 -49 -109 -74 -192 -74s-147 25 -193 74c-45 50 -68 115 -68 196s23 146 69 196s110 75 192 75s146 -25 192 -75s69 -115 69 -196s-23 -146 -69 -196zM390 261c0 91 -35 136 -104 136s-104 -45 -104 -136 c0 -90 35 -135 104 -135s104 45 104 135z" glyph-name="oacute" horiz-adv-x="572" unicode="ó"/><glyph d="M231 585h-118v10l94 142h163l94 -142v-10h-118l-55 54h-4zM478 65c-45 -49 -109 -74 -192 -74s-147 25 -193 74c-45 50 -68 115 -68 196s23 146 69 196s110 75 192 75s146 -25 192 -75s69 -115 69 -196s-23 -146 -69 -196zM390 261c0 91 -35 136 -104 136 s-104 -45 -104 -136c0 -90 35 -135 104 -135s104 45 104 135z" glyph-name="ocircumflex" horiz-adv-x="572" unicode="ô"/><glyph d="M340 583c-23 0 -45 6 -68 18l-15 8c-16 9 -28 13 -36 13c-18 0 -27 -12 -27 -37h-92v15c0 83 41 129 108 129c21 0 45 -6 70 -19l16 -8c17 -9 29 -13 36 -13c19 0 24 11 24 38h91v-15c0 -86 -36 -129 -107 -129zM478 65c-45 -49 -109 -74 -192 -74s-147 25 -193 74 c-45 50 -68 115 -68 196s23 146 69 196s110 75 192 75s146 -25 192 -75s69 -115 69 -196s-23 -146 -69 -196zM390 261c0 91 -35 136 -104 136s-104 -45 -104 -136c0 -90 35 -135 104 -135s104 45 104 135z" glyph-name="otilde" horiz-adv-x="572" unicode="õ"/><glyph d="M253 600h-129v130h129v-130zM454 600h-129v130h129v-130zM478 65c-45 -49 -109 -74 -192 -74s-147 25 -193 74c-45 50 -68 115 -68 196s23 146 69 196s110 75 192 75s146 -25 192 -75s69 -115 69 -196s-23 -146 -69 -196zM390 261c0 91 -35 136 -104 136 s-104 -45 -104 -136c0 -90 35 -135 104 -135s104 45 104 135z" glyph-name="odieresis" horiz-adv-x="572" unicode="ö"/><glyph d="M248 423c-51 0 -78 31 -78 79s27 78 78 78c49 0 78 -31 78 -78c0 -48 -29 -79 -78 -79zM491 250h-486v126h486v-126zM248 46c-51 0 -78 31 -78 79s27 78 78 78c49 0 78 -31 78 -78c0 -48 -29 -79 -78 -79z" glyph-name="divide" horiz-adv-x="496" unicode="÷"/><glyph d="M542 559l-64 -102c46 -49 69 -115 69 -196s-23 -146 -69 -196c-45 -49 -109 -74 -192 -74c-32 0 -63 4 -94 13l-39 -62h-123v10l68 109c-49 49 -73 115 -73 200c0 81 23 146 69 196s110 75 192 75c36 0 69 -5 98 -15l33 52h125v-10zM182 261c0 -22 2 -41 6 -57l120 191 c-9 1 -17 2 -22 2c-69 0 -104 -45 -104 -136zM286 126c69 0 104 45 104 135c0 13 -1 30 -4 50l-116 -184c3 -1 9 -1 16 -1z" glyph-name="oslash" horiz-adv-x="572" unicode="ø"/><glyph d="M374 583h-110l-116 146v10h160l66 -146v-10zM244 -9c-116 0 -194 73 -194 188v344h154v-296c0 -64 29 -96 88 -96c56 0 95 39 95 102v290h154v-523h-138l-12 50h-4c-33 -39 -81 -59 -143 -59z" glyph-name="ugrave" horiz-adv-x="579" unicode="ù"/><glyph d="M335 583h-110v10l66 146h160v-10zM244 -9c-116 0 -194 73 -194 188v344h154v-296c0 -64 29 -96 88 -96c56 0 95 39 95 102v290h154v-523h-138l-12 50h-4c-33 -39 -81 -59 -143 -59z" glyph-name="uacute" horiz-adv-x="579" unicode="ú"/><glyph d="M237 585h-118v10l94 142h163l94 -142v-10h-118l-55 54h-4zM244 -9c-116 0 -194 73 -194 188v344h154v-296c0 -64 29 -96 88 -96c56 0 95 39 95 102v290h154v-523h-138l-12 50h-4c-33 -39 -81 -59 -143 -59z" glyph-name="ucircumflex" horiz-adv-x="579" unicode="û"/><glyph d="M259 600h-129v130h129v-130zM460 600h-129v130h129v-130zM244 -9c-116 0 -194 73 -194 188v344h154v-296c0 -64 29 -96 88 -96c56 0 95 39 95 102v290h154v-523h-138l-12 50h-4c-33 -39 -81 -59 -143 -59z" glyph-name="udieresis" horiz-adv-x="579" unicode="ü"/><glyph d="M336 583h-110v10l66 146h160v-10zM10 513v10h158l106 -371h4l113 371h166v-10l-263 -742h-167v10l75 219h-26z" glyph-name="yacute" horiz-adv-x="567" unicode="ý"/><glyph d="M347 532c64 0 115 -25 154 -76s58 -116 58 -195s-19 -144 -58 -195c-38 -50 -89 -75 -154 -75c-60 0 -106 20 -139 59h-4v-279h-154v969h154v-267h4c33 39 79 59 139 59zM403 261c0 80 -32 136 -103 136s-103 -56 -103 -136c0 -90 34 -135 103 -135s103 45 103 135z" glyph-name="thorn" horiz-adv-x="600" unicode="þ"/><glyph d="M260 600h-129v130h129v-130zM461 600h-129v130h129v-130zM10 513v10h158l106 -371h4l113 371h166v-10l-263 -742h-167v10l75 219h-26z" glyph-name="ydieresis" horiz-adv-x="567" unicode="ÿ"/><glyph d="M205 895h293v-111h-293v111zM250 700h201l241 -690v-10h-174l-41 133h-260l-41 -133h-166v10zM345 543l-85 -272h174l-85 272h-4z" glyph-name="Amacron" horiz-adv-x="702" unicode="Ā"/><glyph d="M426 607h-293v111h293v-111zM208 -9c-115 0 -183 68 -183 164c0 100 70 161 210 161h112v28c0 39 -25 64 -80 64c-47 0 -76 -25 -76 -58h-144c0 105 78 182 225 182c70 0 126 -18 167 -53s62 -80 62 -135v-344h-138l-11 47h-4c-33 -37 -79 -56 -140 -56zM247 111 c61 0 100 35 100 80v22h-99c-47 0 -71 -21 -71 -50c0 -31 25 -52 70 -52z" glyph-name="amacron" horiz-adv-x="541" unicode="ā"/><glyph d="M350 762c-103 0 -161 53 -161 149h108c2 -33 20 -50 53 -50s51 17 53 50h108c0 -96 -57 -149 -161 -149zM250 700h201l241 -690v-10h-174l-41 133h-260l-41 -133h-166v10zM345 543l-85 -272h174l-85 272h-4z" glyph-name="Abreve" horiz-adv-x="702" unicode="Ă"/><glyph d="M278 585c-103 0 -161 53 -161 149h108c2 -33 20 -50 53 -50s51 17 53 50h108c0 -96 -57 -149 -161 -149zM208 -9c-115 0 -183 68 -183 164c0 100 70 161 210 161h112v28c0 39 -25 64 -80 64c-47 0 -76 -25 -76 -58h-144c0 105 78 182 225 182c70 0 126 -18 167 -53 s62 -80 62 -135v-344h-138l-11 47h-4c-33 -37 -79 -56 -140 -56zM247 111c61 0 100 35 100 80v22h-99c-47 0 -71 -21 -71 -50c0 -31 25 -52 70 -52z" glyph-name="abreve" horiz-adv-x="541" unicode="ă"/><glyph d="M250 700h201l241 -690v-10h-1c-48 -19 -85 -57 -85 -94c0 -28 16 -42 49 -42h36v-92h-70c-35 0 -67 9 -94 28c-27 18 -41 44 -41 78c0 50 24 91 73 122h-41l-41 133h-260l-41 -133h-166v10zM345 543l-85 -272h174l-85 272h-4z" glyph-name="Aogonek" horiz-adv-x="702" unicode="Ą"/><glyph d="M272 532c70 0 126 -18 167 -53s62 -80 62 -135v-344h-1c-48 -19 -85 -57 -85 -94c0 -28 16 -42 49 -42h36v-92h-70c-35 0 -67 9 -94 28c-27 18 -41 44 -41 78c0 50 24 91 73 122h-5l-11 47h-4c-33 -37 -79 -56 -140 -56c-115 0 -183 68 -183 164c0 100 70 161 210 161 h112v28c0 39 -25 64 -80 64c-47 0 -76 -25 -76 -58h-144c0 105 78 182 225 182zM347 191v22h-99c-47 0 -71 -21 -71 -50c0 -31 25 -52 70 -52c61 0 100 35 100 80z" glyph-name="aogonek" horiz-adv-x="541" unicode="ą"/><glyph d="M412 760h-110v10l66 146h160v-10zM369 -9c-108 0 -192 34 -251 101s-88 153 -88 257c0 105 29 192 88 259s142 101 251 101c87 0 159 -26 216 -79s89 -117 94 -194h-160c-7 73 -58 131 -150 131c-116 0 -179 -77 -179 -218s63 -217 179 -217c88 0 138 52 151 125h159 c-7 -75 -39 -138 -96 -189s-128 -77 -214 -77z" glyph-name="Cacute" horiz-adv-x="709" unicode="Ć"/><glyph d="M334 583h-110v10l66 146h160v-10zM288 -9c-82 0 -146 25 -193 74c-47 50 -70 116 -70 197s23 146 68 195c45 50 109 75 191 75c75 0 133 -20 174 -60s64 -92 68 -155h-155c-5 47 -38 80 -87 80c-68 0 -102 -45 -102 -135c0 -91 34 -136 102 -136c49 0 82 33 87 80h155 c-4 -63 -26 -115 -67 -155s-98 -60 -171 -60z" glyph-name="cacute" horiz-adv-x="551" unicode="ć"/><glyph d="M314 762h-118v10l94 142h163l94 -142v-10h-118l-55 54h-4zM369 -9c-108 0 -192 34 -251 101s-88 153 -88 257c0 105 29 192 88 259s142 101 251 101c87 0 159 -26 216 -79s89 -117 94 -194h-160c-7 73 -58 131 -150 131c-116 0 -179 -77 -179 -218s63 -217 179 -217 c88 0 138 52 151 125h159c-7 -75 -39 -138 -96 -189s-128 -77 -214 -77z" glyph-name="Ccircumflex" horiz-adv-x="709" unicode="Ĉ"/><glyph d="M236 585h-118v10l94 142h163l94 -142v-10h-118l-55 54h-4zM288 -9c-82 0 -146 25 -193 74c-47 50 -70 116 -70 197s23 146 68 195c45 50 109 75 191 75c75 0 133 -20 174 -60s64 -92 68 -155h-155c-5 47 -38 80 -87 80c-68 0 -102 -45 -102 -135c0 -91 34 -136 102 -136 c49 0 82 33 87 80h155c-4 -63 -26 -115 -67 -155s-98 -60 -171 -60z" glyph-name="ccircumflex" horiz-adv-x="551" unicode="ĉ"/><glyph d="M452 762h-164v156h164v-156zM369 -9c-108 0 -192 34 -251 101s-88 153 -88 257c0 105 29 192 88 259s142 101 251 101c87 0 159 -26 216 -79s89 -117 94 -194h-160c-7 73 -58 131 -150 131c-116 0 -179 -77 -179 -218s63 -217 179 -217c88 0 138 52 151 125h159 c-7 -75 -39 -138 -96 -189s-128 -77 -214 -77z" glyph-name="Cdotaccent" horiz-adv-x="709" unicode="Ċ"/><glyph d="M374 585h-164v156h164v-156zM288 -9c-82 0 -146 25 -193 74c-47 50 -70 116 -70 197s23 146 68 195c45 50 109 75 191 75c75 0 133 -20 174 -60s64 -92 68 -155h-155c-5 47 -38 80 -87 80c-68 0 -102 -45 -102 -135c0 -91 34 -136 102 -136c49 0 82 33 87 80h155 c-4 -63 -26 -115 -67 -155s-98 -60 -171 -60z" glyph-name="cdotaccent" horiz-adv-x="551" unicode="ċ"/><glyph d="M453 762h-163l-94 142v10h118l55 -54h4l56 54h118v-10zM369 -9c-108 0 -192 34 -251 101s-88 153 -88 257c0 105 29 192 88 259s142 101 251 101c87 0 159 -26 216 -79s89 -117 94 -194h-160c-7 73 -58 131 -150 131c-116 0 -179 -77 -179 -218s63 -217 179 -217 c88 0 138 52 151 125h159c-7 -75 -39 -138 -96 -189s-128 -77 -214 -77z" glyph-name="Ccaron" horiz-adv-x="709" unicode="Č"/><glyph d="M375 585h-163l-94 142v10h118l55 -54h4l56 54h118v-10zM288 -9c-82 0 -146 25 -193 74c-47 50 -70 116 -70 197s23 146 68 195c45 50 109 75 191 75c75 0 133 -20 174 -60s64 -92 68 -155h-155c-5 47 -38 80 -87 80c-68 0 -102 -45 -102 -135c0 -91 34 -136 102 -136 c49 0 82 33 87 80h155c-4 -63 -26 -115 -67 -155s-98 -60 -171 -60z" glyph-name="ccaron" horiz-adv-x="551" unicode="č"/><glyph d="M406 762h-163l-94 142v10h118l55 -54h4l56 54h118v-10zM312 0h-242v700h242c105 0 192 -32 260 -97s102 -149 102 -253c0 -99 -34 -183 -101 -250s-154 -100 -261 -100zM217 560v-421h86c135 0 211 68 211 211c0 141 -76 210 -211 210h-86z" glyph-name="Dcaron" horiz-adv-x="704" unicode="Ď"/><glyph d="M237 -9c-65 0 -116 25 -155 75c-38 51 -57 116 -57 196c0 79 19 144 57 194c39 51 90 76 155 76c60 0 106 -20 139 -59h4v267h154v-740h-138l-16 50h-4c-33 -39 -79 -59 -139 -59zM674 570h-100v170h150v-10zM387 262c0 90 -34 135 -103 135s-103 -45 -103 -135 c0 -80 32 -136 103 -136s103 56 103 136z" glyph-name="dcaron" unicode="ď"/><glyph d="M111 700h242c105 0 192 -32 260 -97s102 -149 102 -253c0 -99 -34 -183 -101 -250s-154 -100 -261 -100h-242v297h-71v131h71v272zM258 139h86c135 0 211 68 211 211c0 141 -76 210 -211 210h-86v-132h142v-131h-142v-158z" glyph-name="Dcroat" horiz-adv-x="745" unicode="Đ"/><glyph d="M534 680h56v-100h-56v-580h-138l-16 50h-4c-33 -39 -79 -59 -139 -59c-65 0 -116 25 -155 75c-38 51 -57 116 -57 196c0 79 19 144 57 194c39 51 90 76 155 76c60 0 106 -20 139 -59h4v107h-114v100h114v60h154v-60zM387 262c0 90 -34 135 -103 135s-103 -45 -103 -135 c0 -80 32 -136 103 -136s103 56 103 136z" glyph-name="dslash" unicode="đ"/><glyph d="M482 784h-293v111h293v-111zM570 0h-500v700h500v-140h-343v-129h312v-140h-312v-152h343v-139z" glyph-name="Emacron" horiz-adv-x="610" unicode="Ē"/><glyph d="M429 607h-293v111h293v-111zM284 -9c-80 0 -143 25 -190 76c-46 51 -69 116 -69 194s22 143 67 194s108 77 189 77c77 0 138 -24 183 -73c45 -48 67 -109 67 -182v-57h-349c1 -64 34 -104 102 -104c48 0 78 17 91 52h149c-7 -50 -32 -92 -75 -126 c-42 -34 -97 -51 -165 -51zM183 317h191c-3 53 -34 89 -93 89c-63 0 -95 -36 -98 -89z" glyph-name="emacron" horiz-adv-x="556" unicode="ē"/><glyph d="M334 762c-103 0 -161 53 -161 149h108c2 -33 20 -50 53 -50s51 17 53 50h108c0 -96 -57 -149 -161 -149zM570 0h-500v700h500v-140h-343v-129h312v-140h-312v-152h343v-139z" glyph-name="Ebreve" horiz-adv-x="610" unicode="Ĕ"/><glyph d="M281 585c-103 0 -161 53 -161 149h108c2 -33 20 -50 53 -50s51 17 53 50h108c0 -96 -57 -149 -161 -149zM284 -9c-80 0 -143 25 -190 76c-46 51 -69 116 -69 194s22 143 67 194s108 77 189 77c77 0 138 -24 183 -73c45 -48 67 -109 67 -182v-57h-349 c1 -64 34 -104 102 -104c48 0 78 17 91 52h149c-7 -50 -32 -92 -75 -126c-42 -34 -97 -51 -165 -51zM183 317h191c-3 53 -34 89 -93 89c-63 0 -95 -36 -98 -89z" glyph-name="ebreve" horiz-adv-x="556" unicode="ĕ"/><glyph d="M417 762h-164v156h164v-156zM570 0h-500v700h500v-140h-343v-129h312v-140h-312v-152h343v-139z" glyph-name="Edotaccent" horiz-adv-x="610" unicode="Ė"/><glyph d="M364 585h-164v156h164v-156zM284 -9c-80 0 -143 25 -190 76c-46 51 -69 116 -69 194s22 143 67 194s108 77 189 77c77 0 138 -24 183 -73c45 -48 67 -109 67 -182v-57h-349c1 -64 34 -104 102 -104c48 0 78 17 91 52h149c-7 -50 -32 -92 -75 -126 c-42 -34 -97 -51 -165 -51zM183 317h191c-3 53 -34 89 -93 89c-63 0 -95 -36 -98 -89z" glyph-name="edotaccent" horiz-adv-x="556" unicode="ė"/><glyph d="M570 700v-140h-343v-129h312v-140h-312v-152h343v-139h-4c-48 -19 -85 -57 -85 -94c0 -28 16 -42 49 -42h36v-92h-70c-35 0 -67 9 -94 28c-27 18 -41 44 -41 78c0 50 24 91 73 122h-364v700h500z" glyph-name="Eogonek" horiz-adv-x="610" unicode="Ę"/><glyph d="M531 277v-57h-349c1 -64 34 -104 102 -104c48 0 78 17 91 52h149c-12 -77 -70 -144 -161 -168h2c-48 -19 -85 -57 -85 -94c0 -28 16 -42 49 -42h36v-92h-70c-35 0 -67 9 -94 28c-27 18 -41 44 -41 78c0 48 22 87 67 118c-63 12 -113 42 -149 91c-35 49 -53 107 -53 174 c0 78 22 143 67 194s108 77 189 77c77 0 138 -24 183 -73c45 -48 67 -109 67 -182zM183 317h191c-3 53 -34 89 -93 89c-63 0 -95 -36 -98 -89z" glyph-name="eogonek" horiz-adv-x="556" unicode="ę"/><glyph d="M418 762h-163l-94 142v10h118l55 -54h4l56 54h118v-10zM570 0h-500v700h500v-140h-343v-129h312v-140h-312v-152h343v-139z" glyph-name="Ecaron" horiz-adv-x="610" unicode="Ě"/><glyph d="M365 585h-163l-94 142v10h118l55 -54h4l56 54h118v-10zM284 -9c-80 0 -143 25 -190 76c-46 51 -69 116 -69 194s22 143 67 194s108 77 189 77c77 0 138 -24 183 -73c45 -48 67 -109 67 -182v-57h-349c1 -64 34 -104 102 -104c48 0 78 17 91 52h149 c-7 -50 -32 -92 -75 -126c-42 -34 -97 -51 -165 -51zM183 317h191c-3 53 -34 89 -93 89c-63 0 -95 -36 -98 -89z" glyph-name="ecaron" horiz-adv-x="556" unicode="ě"/><glyph d="M314 762h-118v10l94 142h163l94 -142v-10h-118l-55 54h-4zM369 -9c-108 0 -192 34 -251 101s-88 153 -88 257c0 105 29 192 88 259s142 101 251 101c87 0 158 -24 214 -73c56 -48 88 -108 96 -180h-160c-12 64 -59 111 -150 111c-116 0 -179 -77 -179 -218 s63 -217 179 -217c83 0 133 36 151 107h-131v139h295v-79c0 -93 -29 -167 -88 -224c-59 -56 -134 -84 -227 -84z" glyph-name="Gcircumflex" horiz-adv-x="714" unicode="Ĝ"/><glyph d="M220 585h-118v10l94 142h163l94 -142v-10h-118l-55 54h-4zM278 -238c-71 0 -128 18 -171 53s-66 81 -67 140h151c4 -36 39 -61 87 -61c65 0 102 34 102 83v73h-4c-33 -39 -79 -59 -139 -59c-65 0 -116 25 -155 75c-38 51 -57 116 -57 195c0 80 19 145 57 195 c39 51 90 76 155 76c60 0 106 -20 139 -59h4l16 50h138v-548c0 -65 -24 -116 -72 -155s-109 -58 -184 -58zM387 261c0 80 -32 136 -103 136s-103 -56 -103 -136c0 -90 34 -135 103 -135s103 45 103 135z" glyph-name="gcircumflex" unicode="ĝ"/><glyph d="M369 762c-103 0 -161 53 -161 149h108c2 -33 20 -50 53 -50s51 17 53 50h108c0 -96 -57 -149 -161 -149zM369 -9c-108 0 -192 34 -251 101s-88 153 -88 257c0 105 29 192 88 259s142 101 251 101c87 0 158 -24 214 -73c56 -48 88 -108 96 -180h-160 c-12 64 -59 111 -150 111c-116 0 -179 -77 -179 -218s63 -217 179 -217c83 0 133 36 151 107h-131v139h295v-79c0 -93 -29 -167 -88 -224c-59 -56 -134 -84 -227 -84z" glyph-name="Gbreve" horiz-adv-x="714" unicode="Ğ"/><glyph d="M275 585c-103 0 -161 53 -161 149h108c2 -33 20 -50 53 -50s51 17 53 50h108c0 -96 -57 -149 -161 -149zM278 -238c-71 0 -128 18 -171 53s-66 81 -67 140h151c4 -36 39 -61 87 -61c65 0 102 34 102 83v73h-4c-33 -39 -79 -59 -139 -59c-65 0 -116 25 -155 75 c-38 51 -57 116 -57 195c0 80 19 145 57 195c39 51 90 76 155 76c60 0 106 -20 139 -59h4l16 50h138v-548c0 -65 -24 -116 -72 -155s-109 -58 -184 -58zM387 261c0 80 -32 136 -103 136s-103 -56 -103 -136c0 -90 34 -135 103 -135s103 45 103 135z" glyph-name="gbreve" unicode="ğ"/><glyph d="M452 762h-164v156h164v-156zM369 -9c-108 0 -192 34 -251 101s-88 153 -88 257c0 105 29 192 88 259s142 101 251 101c87 0 158 -24 214 -73c56 -48 88 -108 96 -180h-160c-12 64 -59 111 -150 111c-116 0 -179 -77 -179 -218s63 -217 179 -217c83 0 133 36 151 107h-131 v139h295v-79c0 -93 -29 -167 -88 -224c-59 -56 -134 -84 -227 -84z" glyph-name="Gdotaccent" horiz-adv-x="714" unicode="Ġ"/><glyph d="M358 585h-164v156h164v-156zM278 -238c-71 0 -128 18 -171 53s-66 81 -67 140h151c4 -36 39 -61 87 -61c65 0 102 34 102 83v73h-4c-33 -39 -79 -59 -139 -59c-65 0 -116 25 -155 75c-38 51 -57 116 -57 195c0 80 19 145 57 195c39 51 90 76 155 76c60 0 106 -20 139 -59 h4l16 50h138v-548c0 -65 -24 -116 -72 -155s-109 -58 -184 -58zM387 261c0 80 -32 136 -103 136s-103 -56 -103 -136c0 -90 34 -135 103 -135s103 45 103 135z" glyph-name="gdotaccent" unicode="ġ"/><glyph d="M369 -9c-108 0 -192 34 -251 101s-88 153 -88 257c0 105 29 192 88 259s142 101 251 101c87 0 158 -24 214 -73c56 -48 88 -108 96 -180h-160c-12 64 -59 111 -150 111c-116 0 -179 -77 -179 -218s63 -217 179 -217c83 0 133 36 151 107h-131v139h295v-79 c0 -93 -29 -167 -88 -224c-59 -56 -134 -84 -227 -84zM375 -217h-100v10l21 156h150v-10z" glyph-name="Gcommaaccent" horiz-adv-x="714" unicode="Ģ"/><glyph d="M261 745h100v-10l-21 -156h-150v10zM278 -238c-71 0 -128 18 -171 53s-66 81 -67 140h151c4 -36 39 -61 87 -61c65 0 102 34 102 83v73h-4c-33 -39 -79 -59 -139 -59c-65 0 -116 25 -155 75c-38 51 -57 116 -57 195c0 80 19 145 57 195c39 51 90 76 155 76 c60 0 106 -20 139 -59h4l16 50h138v-548c0 -65 -24 -116 -72 -155s-109 -58 -184 -58zM387 261c0 80 -32 136 -103 136s-103 -56 -103 -136c0 -90 34 -135 103 -135s103 45 103 135z" glyph-name="gcommaaccent" unicode="ģ"/><glyph d="M375 816h-4l-56 -54h-118v10l94 142h163l94 -142v-10h-118zM508 432v268h157v-700h-157v291h-281v-291h-157v700h157v-268h281z" glyph-name="Hcircumflex" horiz-adv-x="735" unicode="Ĥ"/><glyph d="M73 802h-118v10l94 142h163l94 -142v-10h-118l-55 54h-4zM204 0h-154v740h154v-267h4c33 39 81 59 143 59c117 0 194 -73 194 -188v-344h-154v296c0 64 -29 96 -88 96c-56 0 -99 -41 -99 -102v-290z" glyph-name="hcircumflex" horiz-adv-x="585" unicode="ĥ"/><glyph d="M716 632h49v-131h-49v-501h-157v291h-281v-291h-157v501h-51v131h51v68h157v-68h281v68h157v-68zM278 432h281v69h-281v-69z" glyph-name="Hbar" horiz-adv-x="835" unicode="Ħ"/><glyph d="M351 532c117 0 194 -73 194 -188v-344h-154v296c0 64 -29 96 -88 96c-56 0 -99 -41 -99 -102v-290h-154v580h-56v100h56v60h154v-60h114v-100h-114v-107h4c33 39 81 59 143 59z" glyph-name="hbar" horiz-adv-x="585" unicode="ħ"/><glyph d="M205 760c-23 0 -45 6 -68 18l-15 8c-16 9 -28 13 -36 13c-18 0 -27 -12 -27 -37h-92v15c0 83 41 129 108 129c21 0 45 -6 70 -19l16 -8c17 -9 29 -13 36 -13c19 0 24 11 24 38h91v-15c0 -86 -36 -129 -107 -129zM228 0h-158v700h158v-700z" glyph-name="Itilde" horiz-adv-x="298" unicode="Ĩ"/><glyph d="M181 583c-23 0 -45 6 -68 18l-15 8c-16 9 -28 13 -36 13c-18 0 -27 -12 -27 -37h-92v15c0 83 41 129 108 129c21 0 45 -6 70 -19l16 -8c17 -9 29 -13 36 -13c19 0 24 11 24 38h91v-15c0 -86 -36 -129 -107 -129zM204 0h-154v523h154v-523z" glyph-name="itilde" horiz-adv-x="244" unicode="ĩ"/><glyph d="M299 784h-293v111h293v-111zM228 0h-158v700h158v-700z" glyph-name="Imacron" horiz-adv-x="298" unicode="Ī"/><glyph d="M275 607h-293v111h293v-111zM204 0h-154v523h154v-523z" glyph-name="imacron" horiz-adv-x="244" unicode="ī"/><glyph d="M151 762c-103 0 -161 53 -161 149h108c2 -33 20 -50 53 -50s51 17 53 50h108c0 -96 -57 -149 -161 -149zM228 0h-158v700h158v-700z" glyph-name="Ibreve" horiz-adv-x="298" unicode="Ĭ"/><glyph d="M127 585c-103 0 -161 53 -161 149h108c2 -33 20 -50 53 -50s51 17 53 50h108c0 -96 -57 -149 -161 -149zM204 0h-154v523h154v-523z" glyph-name="ibreve" horiz-adv-x="244" unicode="ĭ"/><glyph d="M228 700v-700c-48 -19 -85 -57 -85 -94c0 -28 16 -42 49 -42h36v-92h-70c-35 0 -67 9 -94 28c-27 18 -41 44 -41 78c0 50 24 91 73 122h-26v700h158z" glyph-name="Iogonek" horiz-adv-x="298" unicode="Į"/><glyph d="M46 585v156h164v-156h-164zM72 0h-22v523h154v-523c-48 -19 -85 -57 -85 -94c0 -28 16 -42 49 -42h36v-92h-70c-35 0 -67 9 -94 28c-27 18 -41 44 -41 78c0 50 24 91 73 122z" glyph-name="iogonek" horiz-adv-x="244" unicode="į"/><glyph d="M234 762h-164v156h164v-156zM228 0h-158v700h158v-700z" glyph-name="Idot" horiz-adv-x="298" unicode="İ"/><glyph d="M204 0h-154v523h154v-523z" glyph-name="dotlessi" horiz-adv-x="244" unicode="ı"/><glyph d="M228 0h-158v700h158v-700zM543 -9c-75 0 -133 21 -174 62c-41 42 -61 94 -61 157h153c1 -51 29 -76 84 -76c56 0 82 33 82 85v481h158v-481c0 -67 -21 -121 -64 -164c-42 -43 -101 -64 -178 -64z" glyph-name="IJ" horiz-adv-x="845" unicode="Ĳ"/><glyph d="M209 585h-164v156h164v-156zM457 585h-164v156h164v-156zM204 0h-154v523h154v-523zM264 -238h-70v144h38c44 0 66 24 66 73v544h154v-583c0 -113 -80 -178 -188 -178z" glyph-name="ij" horiz-adv-x="492" unicode="ĳ"/><glyph d="M349 762h-118v10l94 142h163l94 -142v-10h-118l-55 54h-4zM245 -9c-75 0 -133 21 -174 62c-41 42 -61 94 -61 157h153c1 -51 29 -76 84 -76c56 0 82 33 82 85v481h158v-481c0 -67 -21 -121 -64 -164c-42 -43 -101 -64 -178 -64z" glyph-name="Jcircumflex" horiz-adv-x="547" unicode="Ĵ"/><glyph d="M72 585h-118v10l94 142h163l94 -142v-10h-118l-55 54h-4zM20 -238h-70v144h38c44 0 66 24 66 73v544h154v-583c0 -113 -80 -178 -188 -178z" glyph-name="jcircumflex" horiz-adv-x="248" unicode="ĵ"/><glyph d="M654 690l-301 -326l313 -354v-10h-186l-253 290v-290h-157v700h157v-265l243 265h184v-10zM256 -217v10l21 156h150v-10l-71 -156h-100z" glyph-name="Kcommaaccent" horiz-adv-x="676" unicode="Ķ"/><glyph d="M540 513l-212 -237l223 -266v-10h-186l-171 214v-214h-144v740h144v-407l166 190h180v-10zM185 -217v10l21 156h150v-10l-71 -156h-100z" glyph-name="kcommaaccent" horiz-adv-x="561" unicode="ķ"/><glyph d="M540 513l-212 -237l223 -266v-10h-186l-171 214v-214h-144v523h144v-190l166 190h180v-10z" glyph-name="kgreenlandic" horiz-adv-x="561" unicode="ĸ"/><glyph d="M190 760h-110v10l66 146h160v-10zM545 0h-475v700h157v-560h318v-140z" glyph-name="Lacute" horiz-adv-x="555" unicode="Ĺ"/><glyph d="M166 800h-110v10l66 146h160v-10zM204 0h-154v740h154v-740z" glyph-name="lacute" horiz-adv-x="244" unicode="ĺ"/><glyph d="M545 0h-475v700h157v-560h318v-140zM313 -217h-100v10l21 156h150v-10z" glyph-name="Lcommaaccent" horiz-adv-x="555" unicode="Ļ"/><glyph d="M204 0h-154v740h154v-740zM130 -217h-100v10l21 156h150v-10z" glyph-name="lcommaaccent" horiz-adv-x="244" unicode="ļ"/><glyph d="M545 0h-475v700h157v-560h318v-140zM430 530h-100v170h150v-10z" glyph-name="Lcaron" horiz-adv-x="555" unicode="Ľ"/><glyph d="M204 0h-154v740h154v-740zM344 570h-100v170h150v-10z" glyph-name="lcaron" horiz-adv-x="314" unicode="ľ"/><glyph d="M545 0h-475v700h157v-560h318v-140zM476 290h-164v156h164v-156z" glyph-name="Ldot" horiz-adv-x="600" unicode="Ŀ"/><glyph d="M204 0h-154v740h154v-740zM418 287h-164v156h164v-156z" glyph-name="ldot" horiz-adv-x="449" unicode="ŀ"/><glyph d="M297 296v-156h318v-140h-475v236l-60 -23h-10v127l70 27v333h157v-272l170 66h10v-129z" glyph-name="Lslash" horiz-adv-x="625" unicode="Ł"/><glyph d="M327 474h10v-119l-78 -35v-320h-154v252l-65 -29h-10v117l75 34v366h154v-297z" glyph-name="lslash" horiz-adv-x="357" unicode="ł"/><glyph d="M442 760h-110v10l66 146h160v-10zM225 0h-155v700h185l258 -457h4v457h156v-700h-186l-258 454h-4v-454z" glyph-name="Nacute" horiz-adv-x="743" unicode="Ń"/><glyph d="M374 583h-110v10l66 146h160v-10zM204 0h-154v523h138l12 -50h4c33 39 81 59 143 59c116 0 194 -73 194 -188v-344h-154v296c0 64 -29 96 -88 96c-56 0 -95 -39 -95 -102v-290z" glyph-name="nacute" horiz-adv-x="581" unicode="ń"/><glyph d="M225 0h-155v700h185l258 -457h4v457h156v-700h-186l-258 454h-4v-454zM366 -217h-100v10l21 156h150v-10z" glyph-name="Ncommaaccent" horiz-adv-x="743" unicode="Ņ"/><glyph d="M204 0h-154v523h138l12 -50h4c33 39 81 59 143 59c116 0 194 -73 194 -188v-344h-154v296c0 64 -29 96 -88 96c-56 0 -95 -39 -95 -102v-290zM311 -217h-100v10l21 156h150v-10z" glyph-name="ncommaaccent" horiz-adv-x="581" unicode="ņ"/><glyph d="M483 762h-163l-94 142v10h118l55 -54h4l56 54h118v-10zM225 0h-155v700h185l258 -457h4v457h156v-700h-186l-258 454h-4v-454z" glyph-name="Ncaron" horiz-adv-x="743" unicode="Ň"/><glyph d="M415 585h-163l-94 142v10h118l55 -54h4l56 54h118v-10zM204 0h-154v523h138l12 -50h4c33 39 81 59 143 59c116 0 194 -73 194 -188v-344h-154v296c0 64 -29 96 -88 96c-56 0 -95 -39 -95 -102v-290z" glyph-name="ncaron" horiz-adv-x="581" unicode="ň"/><glyph d="M8 463h-118v10l31 247h169v-10zM204 0h-154v523h138l12 -50h4c33 39 81 59 143 59c116 0 194 -73 194 -188v-344h-154v296c0 64 -29 96 -88 96c-56 0 -95 -39 -95 -102v-290z" glyph-name="napostrophe" horiz-adv-x="611" unicode="ŉ"/><glyph d="M517 243v457h156v-711c0 -67 -21 -121 -64 -164c-42 -43 -101 -64 -178 -64v143c59 0 86 34 86 85v11h-30l-258 454h-4v-454h-155v700h185l258 -457h4z" glyph-name="Eng" horiz-adv-x="743" unicode="Ŋ"/><glyph d="M347 532c117 0 194 -73 194 -188v-404c0 -113 -80 -178 -188 -178c-23 0 -46 3 -70 8v139c13 -2 25 -3 38 -3c44 0 66 24 66 73v317c0 64 -29 96 -88 96c-56 0 -95 -39 -95 -102v-290h-154v523h138l12 -50h4c33 39 81 59 143 59z" glyph-name="eng" horiz-adv-x="581" unicode="ŋ"/><glyph d="M518 784h-293v111h293v-111zM30 350c0 105 29 191 88 258s143 101 252 101s192 -34 251 -101s89 -153 89 -258s-30 -191 -89 -258s-142 -101 -251 -101s-193 34 -252 101s-88 153 -88 258zM370 567c-117 0 -180 -76 -180 -217s64 -217 180 -217s180 76 180 217 s-64 217 -180 217z" glyph-name="Omacron" horiz-adv-x="740" unicode="Ō"/><glyph d="M434 607h-293v111h293v-111zM478 65c-45 -49 -109 -74 -192 -74s-147 25 -193 74c-45 50 -68 115 -68 196s23 146 69 196s110 75 192 75s146 -25 192 -75s69 -115 69 -196s-23 -146 -69 -196zM390 261c0 91 -35 136 -104 136s-104 -45 -104 -136c0 -90 35 -135 104 -135 s104 45 104 135z" glyph-name="omacron" horiz-adv-x="572" unicode="ō"/><glyph d="M370 762c-103 0 -161 53 -161 149h108c2 -33 20 -50 53 -50s51 17 53 50h108c0 -96 -57 -149 -161 -149zM30 350c0 105 29 191 88 258s143 101 252 101s192 -34 251 -101s89 -153 89 -258s-30 -191 -89 -258s-142 -101 -251 -101s-193 34 -252 101s-88 153 -88 258z M370 567c-117 0 -180 -76 -180 -217s64 -217 180 -217s180 76 180 217s-64 217 -180 217z" glyph-name="Obreve" horiz-adv-x="740" unicode="Ŏ"/><glyph d="M286 585c-103 0 -161 53 -161 149h108c2 -33 20 -50 53 -50s51 17 53 50h108c0 -96 -57 -149 -161 -149zM478 65c-45 -49 -109 -74 -192 -74s-147 25 -193 74c-45 50 -68 115 -68 196s23 146 69 196s110 75 192 75s146 -25 192 -75s69 -115 69 -196s-23 -146 -69 -196z M390 261c0 91 -35 136 -104 136s-104 -45 -104 -136c0 -90 35 -135 104 -135s104 45 104 135z" glyph-name="obreve" horiz-adv-x="572" unicode="ŏ"/><glyph d="M303 760h-100v10l46 146h160v-10zM503 760h-100v10l46 146h160v-10zM30 350c0 105 29 191 88 258s143 101 252 101s192 -34 251 -101s89 -153 89 -258s-30 -191 -89 -258s-142 -101 -251 -101s-193 34 -252 101s-88 153 -88 258zM370 567c-117 0 -180 -76 -180 -217 s64 -217 180 -217s180 76 180 217s-64 217 -180 217z" glyph-name="Ohungarumlaut" horiz-adv-x="740" unicode="Ő"/><glyph d="M219 583h-100v10l46 146h160v-10zM419 583h-100v10l46 146h160v-10zM478 65c-45 -49 -109 -74 -192 -74s-147 25 -193 74c-45 50 -68 115 -68 196s23 146 69 196s110 75 192 75s146 -25 192 -75s69 -115 69 -196s-23 -146 -69 -196zM390 261c0 91 -35 136 -104 136 s-104 -45 -104 -136c0 -90 35 -135 104 -135s104 45 104 135z" glyph-name="ohungarumlaut" horiz-adv-x="572" unicode="ő"/><glyph d="M1053 700v-140h-343v-129h312v-140h-312v-152h343v-139h-500v38c-50 -31 -111 -47 -183 -47c-109 0 -193 34 -252 101s-88 153 -88 258s29 191 88 258s143 101 252 101c72 0 133 -16 183 -47v38h500zM370 567c-117 0 -180 -76 -180 -217s64 -217 180 -217s180 76 180 217 s-64 217 -180 217z" glyph-name="OE" horiz-adv-x="1093" unicode="Œ"/><glyph d="M896 277v-57h-349c1 -64 34 -104 102 -104c47 0 78 17 91 52h149c-7 -50 -32 -92 -75 -126c-42 -34 -97 -51 -165 -51c-73 0 -132 23 -177 68c-47 -45 -109 -68 -186 -68c-83 0 -147 25 -193 74c-45 50 -68 115 -68 196s23 146 69 196s110 75 192 75 c77 0 138 -22 184 -67c45 45 103 67 176 67c77 0 138 -24 183 -73c45 -48 67 -109 67 -182zM548 317h191c-3 53 -34 89 -93 89c-63 0 -95 -36 -98 -89zM390 261c0 91 -35 136 -104 136s-104 -45 -104 -136c0 -90 35 -135 104 -135s104 45 104 135z" glyph-name="oe" horiz-adv-x="921" unicode="œ"/><glyph d="M492 916v-10l-116 -146h-110v10l66 146h160zM491 266l169 -256v-10h-184l-151 247h-98v-247h-157v700h320c72 0 130 -22 173 -65c44 -43 66 -96 66 -158c0 -100 -51 -176 -138 -211zM382 560h-155v-173h155c59 0 86 40 86 89c0 47 -29 84 -86 84z" glyph-name="Racute" horiz-adv-x="670" unicode="Ŕ"/><glyph d="M251 583h-110v10l66 146h160v-10zM194 0h-144v523h128l12 -76h4c28 57 73 85 134 85h36v-141h-50c-73 0 -120 -50 -120 -133v-258z" glyph-name="racute" horiz-adv-x="389" unicode="ŕ"/><glyph d="M491 266l169 -256v-10h-184l-151 247h-98v-247h-157v700h320c72 0 130 -22 173 -65c44 -43 66 -96 66 -158c0 -100 -51 -176 -138 -211zM382 560h-155v-173h155c59 0 86 40 86 89c0 47 -29 84 -86 84zM258 -217v10l21 156h150v-10l-71 -156h-100z" glyph-name="Rcommaaccent" horiz-adv-x="670" unicode="Ŗ"/><glyph d="M194 0h-144v523h128l12 -76h4c28 57 73 85 134 85h36v-141h-50c-73 0 -120 -50 -120 -133v-258zM173 -217h-100v10l21 156h150v-10z" glyph-name="rcommaaccent" horiz-adv-x="389" unicode="ŗ"/><glyph d="M511 904l-94 -142h-163l-94 142v10h118l55 -54h4l56 54h118v-10zM491 266l169 -256v-10h-184l-151 247h-98v-247h-157v700h320c72 0 130 -22 173 -65c44 -43 66 -96 66 -158c0 -100 -51 -176 -138 -211zM382 560h-155v-173h155c59 0 86 40 86 89c0 47 -29 84 -86 84z" glyph-name="Rcaron" horiz-adv-x="670" unicode="Ř"/><glyph d="M292 585h-163l-94 142v10h118l55 -54h4l56 54h118v-10zM194 0h-144v523h128l12 -76h4c28 57 73 85 134 85h36v-141h-50c-73 0 -120 -50 -120 -133v-258z" glyph-name="rcaron" horiz-adv-x="389" unicode="ř"/><glyph d="M359 760h-110v10l66 146h160v-10zM315 -9c-183 0 -286 94 -295 249h159c7 -73 57 -110 136 -110c87 0 131 24 131 72c0 39 -24 61 -85 74l-102 22c-137 29 -216 86 -216 210c0 59 25 108 75 145s116 56 198 56c81 0 147 -21 199 -64c53 -43 79 -97 80 -164h-159 c-4 51 -45 88 -122 88c-76 0 -110 -28 -110 -61c0 -31 19 -52 79 -65l95 -20c145 -31 229 -89 229 -217c0 -133 -92 -215 -292 -215z" glyph-name="Sacute" horiz-adv-x="632" unicode="Ś"/><glyph d="M298 583h-110v10l66 146h160v-10zM257 -9c-156 0 -229 73 -232 186h154c0 -32 26 -58 78 -58c51 0 74 17 74 38s-18 34 -53 41l-77 15c-107 20 -160 75 -160 164s80 155 215 155c66 0 119 -17 158 -50c40 -33 60 -75 60 -125h-152c1 28 -21 54 -69 54 c-37 0 -61 -16 -61 -36c0 -19 13 -31 39 -36l100 -19c93 -17 155 -61 155 -162c0 -105 -92 -167 -229 -167z" glyph-name="sacute" horiz-adv-x="511" unicode="ś"/><glyph d="M261 762h-118v10l94 142h163l94 -142v-10h-118l-55 54h-4zM315 -9c-183 0 -286 94 -295 249h159c7 -73 57 -110 136 -110c87 0 131 24 131 72c0 39 -24 61 -85 74l-102 22c-137 29 -216 86 -216 210c0 59 25 108 75 145s116 56 198 56c81 0 147 -21 199 -64 c53 -43 79 -97 80 -164h-159c-4 51 -45 88 -122 88c-76 0 -110 -28 -110 -61c0 -31 19 -52 79 -65l95 -20c145 -31 229 -89 229 -217c0 -133 -92 -215 -292 -215z" glyph-name="Scircumflex" horiz-adv-x="632" unicode="Ŝ"/><glyph d="M200 585h-118v10l94 142h163l94 -142v-10h-118l-55 54h-4zM257 -9c-156 0 -229 73 -232 186h154c0 -32 26 -58 78 -58c51 0 74 17 74 38s-18 34 -53 41l-77 15c-107 20 -160 75 -160 164s80 155 215 155c66 0 119 -17 158 -50c40 -33 60 -75 60 -125h-152 c1 28 -21 54 -69 54c-37 0 -61 -16 -61 -36c0 -19 13 -31 39 -36l100 -19c93 -17 155 -61 155 -162c0 -105 -92 -167 -229 -167z" glyph-name="scircumflex" horiz-adv-x="511" unicode="ŝ"/><glyph d="M607 206c0 -120 -75 -198 -238 -213l-21 -29c59 -5 97 -41 97 -92c0 -59 -56 -100 -147 -100c-77 0 -133 41 -133 102h90c0 -16 18 -30 42 -30c25 0 47 11 47 30c0 20 -15 30 -44 30h-32l-25 31l29 58c-156 13 -244 106 -252 247h159c7 -73 57 -110 136 -110 c87 0 131 24 131 72c0 39 -24 61 -85 74l-102 22c-137 29 -216 86 -216 210c0 59 25 108 75 145s116 56 198 56c81 0 147 -21 199 -64c53 -43 79 -97 80 -164h-159c-4 51 -45 88 -122 88c-76 0 -110 -28 -110 -61c0 -31 19 -52 79 -65l95 -20c145 -31 229 -89 229 -217z" glyph-name="Scedilla" horiz-adv-x="632" unicode="Ş"/><glyph d="M486 158c0 -93 -72 -153 -185 -165l-21 -29c59 -5 97 -41 97 -92c0 -59 -56 -100 -147 -100c-77 0 -133 41 -133 102h90c0 -16 18 -30 42 -30c25 0 47 11 47 30c0 20 -15 30 -44 30h-32l-25 31l30 59c-120 15 -177 83 -180 183h154c0 -32 26 -58 78 -58c51 0 74 17 74 38 s-18 34 -53 41l-77 15c-107 20 -160 75 -160 164s80 155 215 155c66 0 119 -17 158 -50c40 -33 60 -75 60 -125h-152c1 28 -21 54 -69 54c-37 0 -61 -16 -61 -36c0 -19 13 -31 39 -36l100 -19c93 -17 155 -61 155 -162z" glyph-name="scedilla" horiz-adv-x="511" unicode="ş"/><glyph d="M400 762h-163l-94 142v10h118l55 -54h4l56 54h118v-10zM315 -9c-183 0 -286 94 -295 249h159c7 -73 57 -110 136 -110c87 0 131 24 131 72c0 39 -24 61 -85 74l-102 22c-137 29 -216 86 -216 210c0 59 25 108 75 145s116 56 198 56c81 0 147 -21 199 -64 c53 -43 79 -97 80 -164h-159c-4 51 -45 88 -122 88c-76 0 -110 -28 -110 -61c0 -31 19 -52 79 -65l95 -20c145 -31 229 -89 229 -217c0 -133 -92 -215 -292 -215z" glyph-name="Scaron" horiz-adv-x="632" unicode="Š"/><glyph d="M339 585h-163l-94 142v10h118l55 -54h4l56 54h118v-10zM257 -9c-156 0 -229 73 -232 186h154c0 -32 26 -58 78 -58c51 0 74 17 74 38s-18 34 -53 41l-77 15c-107 20 -160 75 -160 164s80 155 215 155c66 0 119 -17 158 -50c40 -33 60 -75 60 -125h-152 c1 28 -21 54 -69 54c-37 0 -61 -16 -61 -36c0 -19 13 -31 39 -36l100 -19c93 -17 155 -61 155 -162c0 -105 -92 -167 -229 -167z" glyph-name="scaron" horiz-adv-x="511" unicode="š"/><glyph d="M375 0h-158v559h-202v141h562v-141h-202v-559zM297 -217h-100v10l21 156h150v-10z" glyph-name="uni0162" horiz-adv-x="592" unicode="Ţ"/><glyph d="M386 0h-106c-116 0 -175 67 -175 167v225h-85v131h92v137h147v-137h125v-131h-125v-188c0 -49 20 -70 67 -70h60v-134zM250 -217h-100v10l21 156h150v-10z" glyph-name="uni0163" horiz-adv-x="431" unicode="ţ"/><glyph d="M384 762h-163l-94 142v10h118l55 -54h4l56 54h118v-10zM375 0h-158v559h-202v141h562v-141h-202v-559z" glyph-name="Tcaron" horiz-adv-x="592" unicode="Ť"/><glyph d="M414 570h-100v170h150v-10zM386 0h-106c-116 0 -175 67 -175 167v225h-85v131h92v137h147v-137h125v-131h-125v-188c0 -49 20 -70 67 -70h60v-134z" glyph-name="tcaron" horiz-adv-x="431" unicode="ť"/><glyph d="M577 700v-141h-202v-127h163v-131h-163v-301h-158v301h-155v131h155v127h-202v141h562z" glyph-name="Tbar" horiz-adv-x="600" unicode="Ŧ"/><glyph d="M376 134h10v-128c-27 -10 -62 -15 -106 -15c-116 0 -175 67 -175 167v74h-85v100h85v60h-85v131h92v109l137 28h10v-137h125v-131h-125v-60h117v-100h-117v-37c0 -49 20 -70 67 -70c17 0 34 3 50 9z" glyph-name="tbar" horiz-adv-x="431" unicode="ŧ"/><glyph d="M411 760c-23 0 -45 6 -68 18l-15 8c-16 9 -28 13 -36 13c-18 0 -27 -12 -27 -37h-92v15c0 83 41 129 108 129c21 0 45 -6 70 -19l16 -8c17 -9 29 -13 36 -13c19 0 24 11 24 38h91v-15c0 -86 -36 -129 -107 -129zM356 -9c-86 0 -157 25 -213 74c-55 49 -83 120 -83 212 v423h157v-421c0 -99 46 -148 139 -148s140 49 140 148v421h158v-423c0 -92 -28 -163 -84 -212c-55 -49 -127 -74 -214 -74z" glyph-name="Utilde" horiz-adv-x="714" unicode="Ũ"/><glyph d="M346 583c-23 0 -45 6 -68 18l-15 8c-16 9 -28 13 -36 13c-18 0 -27 -12 -27 -37h-92v15c0 83 41 129 108 129c21 0 45 -6 70 -19l16 -8c17 -9 29 -13 36 -13c19 0 24 11 24 38h91v-15c0 -86 -36 -129 -107 -129zM244 -9c-116 0 -194 73 -194 188v344h154v-296 c0 -64 29 -96 88 -96c56 0 95 39 95 102v290h154v-523h-138l-12 50h-4c-33 -39 -81 -59 -143 -59z" glyph-name="utilde" horiz-adv-x="579" unicode="ũ"/><glyph d="M505 784h-293v111h293v-111zM356 -9c-86 0 -157 25 -213 74c-55 49 -83 120 -83 212v423h157v-421c0 -99 46 -148 139 -148s140 49 140 148v421h158v-423c0 -92 -28 -163 -84 -212c-55 -49 -127 -74 -214 -74z" glyph-name="Umacron" horiz-adv-x="714" unicode="Ū"/><glyph d="M440 607h-293v111h293v-111zM244 -9c-116 0 -194 73 -194 188v344h154v-296c0 -64 29 -96 88 -96c56 0 95 39 95 102v290h154v-523h-138l-12 50h-4c-33 -39 -81 -59 -143 -59z" glyph-name="umacron" horiz-adv-x="579" unicode="ū"/><glyph d="M357 762c-103 0 -161 53 -161 149h108c2 -33 20 -50 53 -50s51 17 53 50h108c0 -96 -57 -149 -161 -149zM356 -9c-86 0 -157 25 -213 74c-55 49 -83 120 -83 212v423h157v-421c0 -99 46 -148 139 -148s140 49 140 148v421h158v-423c0 -92 -28 -163 -84 -212 c-55 -49 -127 -74 -214 -74z" glyph-name="Ubreve" horiz-adv-x="714" unicode="Ŭ"/><glyph d="M292 585c-103 0 -161 53 -161 149h108c2 -33 20 -50 53 -50s51 17 53 50h108c0 -96 -57 -149 -161 -149zM244 -9c-116 0 -194 73 -194 188v344h154v-296c0 -64 29 -96 88 -96c56 0 95 39 95 102v290h154v-523h-138l-12 50h-4c-33 -39 -81 -59 -143 -59z" glyph-name="ubreve" horiz-adv-x="579" unicode="ŭ"/><glyph d="M356 745c-67 0 -117 48 -117 113c0 67 49 114 117 114c69 0 118 -47 118 -114s-49 -113 -118 -113zM355 816c59 -4 59 88 0 85c-56 3 -56 -89 0 -85zM356 -9c-86 0 -157 25 -213 74c-55 49 -83 120 -83 212v423h157v-421c0 -99 46 -148 139 -148s140 49 140 148v421h158 v-423c0 -92 -28 -163 -84 -212c-55 -49 -127 -74 -214 -74z" glyph-name="Uring" horiz-adv-x="714" unicode="Ů"/><glyph d="M291 568c-67 0 -117 48 -117 113c0 67 49 114 117 114c69 0 118 -47 118 -114s-49 -113 -118 -113zM290 639c59 -4 59 88 0 85c-56 3 -56 -89 0 -85zM244 -9c-116 0 -194 73 -194 188v344h154v-296c0 -64 29 -96 88 -96c56 0 95 39 95 102v290h154v-523h-138l-12 50h-4 c-33 -39 -81 -59 -143 -59z" glyph-name="uring" horiz-adv-x="579" unicode="ů"/><glyph d="M290 760h-100v10l46 146h160v-10zM490 760h-100v10l46 146h160v-10zM356 -9c-86 0 -157 25 -213 74c-55 49 -83 120 -83 212v423h157v-421c0 -99 46 -148 139 -148s140 49 140 148v421h158v-423c0 -92 -28 -163 -84 -212c-55 -49 -127 -74 -214 -74z" glyph-name="Uhungarumlaut" horiz-adv-x="714" unicode="Ű"/><glyph d="M225 583h-100v10l46 146h160v-10zM425 583h-100v10l46 146h160v-10zM244 -9c-116 0 -194 73 -194 188v344h154v-296c0 -64 29 -96 88 -96c56 0 95 39 95 102v290h154v-523h-138l-12 50h-4c-33 -39 -81 -59 -143 -59z" glyph-name="uhungarumlaut" horiz-adv-x="579" unicode="ű"/><glyph d="M496 279v421h158v-423c0 -152 -82 -248 -213 -277h1c-48 -19 -85 -57 -85 -94c0 -28 16 -42 49 -42h36v-92h-70c-35 0 -67 9 -94 28c-27 18 -41 44 -41 78c0 46 22 85 65 117c-145 20 -242 118 -242 282v423h157v-421c0 -99 46 -148 139 -148s140 49 140 148z" glyph-name="Uogonek" horiz-adv-x="714" unicode="Ų"/><glyph d="M387 233v290h154v-523h-7c-48 -19 -85 -57 -85 -94c0 -28 16 -42 49 -42h36v-92h-70c-35 0 -67 9 -94 28c-27 18 -41 44 -41 78c0 49 25 90 74 123l-12 49h-4c-33 -39 -81 -59 -143 -59c-116 0 -194 73 -194 188v344h154v-296c0 -64 29 -96 88 -96c56 0 95 39 95 102z" glyph-name="uogonek" horiz-adv-x="579" unicode="ų"/><glyph d="M418 762h-118v10l94 142h163l94 -142v-10h-118l-55 54h-4zM373 0h-203l-160 690v10h169l93 -483h4l112 483h174l114 -483h4l92 483h167v-10l-160 -690h-203l-98 463h-4z" glyph-name="Wcircumflex" horiz-adv-x="949" unicode="Ŵ"/><glyph d="M365 585h-118v10l94 142h163l94 -142v-10h-118l-55 54h-4zM341 0h-203l-128 513v10h151l79 -358h4l70 358h206l70 -358h4l79 358h150v-10l-128 -513h-203l-72 358h-4z" glyph-name="wcircumflex" horiz-adv-x="833" unicode="ŵ"/><glyph d="M303 762h-118v10l94 142h163l94 -142v-10h-118l-55 54h-4zM429 0h-158v278l-261 412v10h183l156 -264h4l152 264h183v-10l-259 -410v-280z" glyph-name="Ycircumflex" horiz-adv-x="698" unicode="Ŷ"/><glyph d="M238 585h-118v10l94 142h163l94 -142v-10h-118l-55 54h-4zM10 513v10h158l106 -371h4l113 371h166v-10l-263 -742h-167v10l75 219h-26z" glyph-name="ycircumflex" horiz-adv-x="567" unicode="ŷ"/><glyph d="M325 777h-129v130h129v-130zM526 777h-129v130h129v-130zM429 0h-158v278l-261 412v10h183l156 -264h4l152 264h183v-10l-259 -410v-280z" glyph-name="Ydieresis" horiz-adv-x="698" unicode="Ÿ"/><glyph d="M344 760h-110v10l66 146h160v-10zM567 0h-537v137l334 418v4h-325v141h522v-139l-333 -417v-4h339v-140z" glyph-name="Zacute" horiz-adv-x="597" unicode="Ź"/><glyph d="M304 583h-110v10l66 146h160v-10zM467 0h-432v129l241 259v4h-240v131h429v-130l-240 -258v-4h242v-131z" glyph-name="zacute" horiz-adv-x="502" unicode="ź"/><glyph d="M384 762h-164v156h164v-156zM567 0h-537v137l334 418v4h-325v141h522v-139l-333 -417v-4h339v-140z" glyph-name="Zdotaccent" horiz-adv-x="597" unicode="Ż"/><glyph d="M344 585h-164v156h164v-156zM467 0h-432v129l241 259v4h-240v131h429v-130l-240 -258v-4h242v-131z" glyph-name="zdotaccent" horiz-adv-x="502" unicode="ż"/><glyph d="M385 762h-163l-94 142v10h118l55 -54h4l56 54h118v-10zM567 0h-537v137l334 418v4h-325v141h522v-139l-333 -417v-4h339v-140z" glyph-name="Zcaron" horiz-adv-x="597" unicode="Ž"/><glyph d="M345 585h-163l-94 142v10h118l55 -54h4l56 54h118v-10zM467 0h-432v129l241 259v4h-240v131h429v-130l-240 -258v-4h242v-131z" glyph-name="zcaron" horiz-adv-x="502" unicode="ž"/><glyph d="M193 -229h-154v10l77 501h-96v130h117l17 111c21 137 93 201 232 201h77v-132h-61c-57 0 -89 -29 -98 -86l-14 -94h131v-130h-151z" glyph-name="florin" horiz-adv-x="483" unicode="ƒ"/><glyph d="M528 904l-94 -142h-163l-94 142v10h118l55 -54h4l56 54h118v-10zM250 700h201l241 -690v-10h-174l-41 133h-260l-41 -133h-166v10zM345 543l-85 -272h174l-85 272h-4z" glyph-name="uni01CD" horiz-adv-x="702" unicode="Ǎ"/><glyph d="M362 585h-163l-94 142v10h118l55 -54h4l56 54h118v-10zM208 -9c-115 0 -183 68 -183 164c0 100 70 161 210 161h112v28c0 39 -25 64 -80 64c-47 0 -76 -25 -76 -58h-144c0 105 78 182 225 182c70 0 126 -18 167 -53s62 -80 62 -135v-344h-138l-11 47h-4 c-33 -37 -79 -56 -140 -56zM247 111c61 0 100 35 100 80v22h-99c-47 0 -71 -21 -71 -50c0 -31 25 -52 70 -52z" glyph-name="uni01CE" horiz-adv-x="541" unicode="ǎ"/><glyph d="M235 762h-163l-94 142v10h118l55 -54h4l56 54h118v-10zM228 0h-158v700h158v-700z" glyph-name="uni01CF" horiz-adv-x="298" unicode="Ǐ"/><glyph d="M211 585h-163l-94 142v10h118l55 -54h4l56 54h118v-10zM204 0h-154v523h154v-523z" glyph-name="uni01D0" horiz-adv-x="244" unicode="ǐ"/><glyph d="M454 762h-163l-94 142v10h118l55 -54h4l56 54h118v-10zM30 350c0 105 29 191 88 258s143 101 252 101s192 -34 251 -101s89 -153 89 -258s-30 -191 -89 -258s-142 -101 -251 -101s-193 34 -252 101s-88 153 -88 258zM370 567c-117 0 -180 -76 -180 -217s64 -217 180 -217 s180 76 180 217s-64 217 -180 217z" glyph-name="uni01D1" horiz-adv-x="740" unicode="Ǒ"/><glyph d="M370 585h-163l-94 142v10h118l55 -54h4l56 54h118v-10zM478 65c-45 -49 -109 -74 -192 -74s-147 25 -193 74c-45 50 -68 115 -68 196s23 146 69 196s110 75 192 75s146 -25 192 -75s69 -115 69 -196s-23 -146 -69 -196zM390 261c0 91 -35 136 -104 136 s-104 -45 -104 -136c0 -90 35 -135 104 -135s104 45 104 135z" glyph-name="uni01D2" horiz-adv-x="572" unicode="ǒ"/><glyph d="M453 762h-163l-94 142v10h118l55 -54h4l56 54h118v-10zM369 -9c-108 0 -192 34 -251 101s-88 153 -88 257c0 105 29 192 88 259s142 101 251 101c87 0 158 -24 214 -73c56 -48 88 -108 96 -180h-160c-12 64 -59 111 -150 111c-116 0 -179 -77 -179 -218s63 -217 179 -217 c83 0 133 36 151 107h-131v139h295v-79c0 -93 -29 -167 -88 -224c-59 -56 -134 -84 -227 -84z" glyph-name="Gcaron" horiz-adv-x="714" unicode="Ǧ"/><glyph d="M359 585h-163l-94 142v10h118l55 -54h4l56 54h118v-10zM278 -238c-71 0 -128 18 -171 53s-66 81 -67 140h151c4 -36 39 -61 87 -61c65 0 102 34 102 83v73h-4c-33 -39 -79 -59 -139 -59c-65 0 -116 25 -155 75c-38 51 -57 116 -57 195c0 80 19 145 57 195 c39 51 90 76 155 76c60 0 106 -20 139 -59h4l16 50h138v-548c0 -65 -24 -116 -72 -155s-109 -58 -184 -58zM387 261c0 80 -32 136 -103 136s-103 -56 -103 -136c0 -90 34 -135 103 -135s103 45 103 135z" glyph-name="gcaron" unicode="ǧ"/><glyph d="M315 -9c-183 0 -286 94 -295 249h159c7 -73 57 -110 136 -110c87 0 131 24 131 72c0 39 -24 61 -85 74l-102 22c-137 29 -216 86 -216 210c0 59 25 108 75 145s116 56 198 56c81 0 147 -21 199 -64c53 -43 79 -97 80 -164h-159c-4 51 -45 88 -122 88 c-76 0 -110 -28 -110 -61c0 -31 19 -52 79 -65l95 -20c145 -31 229 -89 229 -217c0 -133 -92 -215 -292 -215zM324 -217h-100v10l21 156h150v-10z" glyph-name="Scommaaccent" horiz-adv-x="632" unicode="Ș"/><glyph d="M257 -9c-156 0 -229 73 -232 186h154c0 -32 26 -58 78 -58c51 0 74 17 74 38s-18 34 -53 41l-77 15c-107 20 -160 75 -160 164s80 155 215 155c66 0 119 -17 158 -50c40 -33 60 -75 60 -125h-152c1 28 -21 54 -69 54c-37 0 -61 -16 -61 -36c0 -19 13 -31 39 -36l100 -19 c93 -17 155 -61 155 -162c0 -105 -92 -167 -229 -167zM256 -217h-100v10l21 156h150v-10z" glyph-name="scommaaccent" horiz-adv-x="511" unicode="ș"/><glyph d="M375 559v-559h-28l-26 -36c59 -5 97 -41 97 -92c0 -59 -56 -100 -147 -100c-77 0 -133 41 -133 102h90c0 -16 18 -30 42 -30c25 0 47 11 47 30c0 20 -15 30 -44 30h-32l-25 31l33 65h-32v559h-202v141h562v-141h-202z" glyph-name="uni021A" horiz-adv-x="592" unicode="Ț"/><glyph d="M386 134v-134h-86l-26 -36c59 -5 97 -41 97 -92c0 -59 -56 -100 -147 -100c-77 0 -133 41 -133 102h90c0 -16 18 -30 42 -30c25 0 47 11 47 30c0 20 -15 30 -44 30h-32l-25 31l38 76c-68 23 -102 75 -102 156v225h-85v131h92v137h147v-137h125v-131h-125v-188 c0 -49 20 -70 67 -70h60z" glyph-name="uni021B" horiz-adv-x="431" unicode="ț"/><glyph d="M20 -238h-70v144h38c44 0 66 24 66 73v544h154v-583c0 -113 -80 -178 -188 -178z" glyph-name="uni0237" horiz-adv-x="248" unicode="ȷ"/><glyph d="M143 585h-118v10l94 142h163l94 -142v-10h-118l-55 54h-4z" glyph-name="circumflex" horiz-adv-x="401" unicode="ˆ"/><glyph d="M282 585h-163l-94 142v10h118l55 -54h4l56 54h118v-10z" glyph-name="caron" horiz-adv-x="401" unicode="ˇ"/><glyph d="M196 585c-103 0 -161 53 -161 149h108c2 -33 20 -50 53 -50s51 17 53 50h108c0 -96 -57 -149 -161 -149z" glyph-name="breve" horiz-adv-x="392" unicode="˘"/><glyph d="M206 585h-164v156h164v-156z" glyph-name="dotaccent" horiz-adv-x="246" unicode="˙"/><glyph d="M147 568c-67 0 -117 48 -117 113c0 67 49 114 117 114c69 0 118 -47 118 -114s-49 -113 -118 -113zM146 639c59 -4 59 88 0 85c-56 3 -56 -89 0 -85z" glyph-name="ring" horiz-adv-x="295" unicode="˚"/><glyph d="M235 -228h-70c-35 0 -67 9 -94 28c-27 18 -41 44 -41 78c0 60 34 106 102 138l103 -16c-48 -19 -85 -57 -85 -94c0 -28 16 -42 49 -42h36v-92z" glyph-name="ogonek" horiz-adv-x="265" unicode="˛"/><glyph d="M258 583c-23 0 -45 6 -68 18l-15 8c-16 9 -28 13 -36 13c-18 0 -27 -12 -27 -37h-92v15c0 83 41 129 108 129c21 0 45 -6 70 -19l16 -8c17 -9 29 -13 36 -13c19 0 24 11 24 38h91v-15c0 -86 -36 -129 -107 -129z" glyph-name="tilde" horiz-adv-x="385" unicode="˜"/><glyph d="M130 583h-100v10l46 146h160v-10zM330 583h-100v10l46 146h160v-10z" glyph-name="hungarumlaut" horiz-adv-x="466" unicode="˝"/><glyph d="M-101 -217h-100v10l21 156h150v-10z" glyph-name="uni0326" horiz-adv-x="0" unicode="̦"/><glyph d="M555 760h-110l-116 146v10h160l66 -146v-10zM373 0h-203l-160 690v10h169l93 -483h4l112 483h174l114 -483h4l92 483h167v-10l-160 -690h-203l-98 463h-4z" glyph-name="Wgrave" horiz-adv-x="949" unicode="Ẁ"/><glyph d="M502 583h-110l-116 146v10h160l66 -146v-10zM341 0h-203l-128 513v10h151l79 -358h4l70 358h206l70 -358h4l79 358h150v-10l-128 -513h-203l-72 358h-4z" glyph-name="wgrave" horiz-adv-x="833" unicode="ẁ"/><glyph d="M516 760h-110v10l66 146h160v-10zM373 0h-203l-160 690v10h169l93 -483h4l112 483h174l114 -483h4l92 483h167v-10l-160 -690h-203l-98 463h-4z" glyph-name="Wacute" horiz-adv-x="949" unicode="Ẃ"/><glyph d="M463 583h-110v10l66 146h160v-10zM341 0h-203l-128 513v10h151l79 -358h4l70 358h206l70 -358h4l79 358h150v-10l-128 -513h-203l-72 358h-4z" glyph-name="wacute" horiz-adv-x="833" unicode="ẃ"/><glyph d="M440 777h-129v130h129v-130zM641 777h-129v130h129v-130zM373 0h-203l-160 690v10h169l93 -483h4l112 483h174l114 -483h4l92 483h167v-10l-160 -690h-203l-98 463h-4z" glyph-name="Wdieresis" horiz-adv-x="949" unicode="Ẅ"/><glyph d="M387 600h-129v130h129v-130zM588 600h-129v130h129v-130zM341 0h-203l-128 513v10h151l79 -358h4l70 358h206l70 -358h4l79 358h150v-10l-128 -513h-203l-72 358h-4z" glyph-name="wdieresis" horiz-adv-x="833" unicode="ẅ"/><glyph d="M388 760c-23 0 -45 6 -68 18l-15 8c-16 9 -28 13 -36 13c-18 0 -27 -12 -27 -37h-92v15c0 83 41 129 108 129c21 0 45 -6 70 -19l16 -8c17 -9 29 -13 36 -13c19 0 24 11 24 38h91v-15c0 -86 -36 -129 -107 -129zM570 0h-500v700h500v-140h-343v-129h312v-140h-312v-152 h343v-139z" glyph-name="uni1EBC" horiz-adv-x="610" unicode="Ẽ"/><glyph d="M335 583c-23 0 -45 6 -68 18l-15 8c-16 9 -28 13 -36 13c-18 0 -27 -12 -27 -37h-92v15c0 83 41 129 108 129c21 0 45 -6 70 -19l16 -8c17 -9 29 -13 36 -13c19 0 24 11 24 38h91v-15c0 -86 -36 -129 -107 -129zM284 -9c-80 0 -143 25 -190 76c-46 51 -69 116 -69 194 s22 143 67 194s108 77 189 77c77 0 138 -24 183 -73c45 -48 67 -109 67 -182v-57h-349c1 -64 34 -104 102 -104c48 0 78 17 91 52h149c-7 -50 -32 -92 -75 -126c-42 -34 -97 -51 -165 -51zM183 317h191c-3 53 -34 89 -93 89c-63 0 -95 -36 -98 -89z" glyph-name="uni1EBD" horiz-adv-x="556" unicode="ẽ"/><glyph d="M440 760h-110l-116 146v10h160l66 -146v-10zM429 0h-158v278l-261 412v10h183l156 -264h4l152 264h183v-10l-259 -410v-280z" glyph-name="Ygrave" horiz-adv-x="698" unicode="Ỳ"/><glyph d="M375 583h-110l-116 146v10h160l66 -146v-10zM10 513v10h158l106 -371h4l113 371h166v-10l-263 -742h-167v10l75 219h-26z" glyph-name="ygrave" horiz-adv-x="567" unicode="ỳ"/><glyph glyph-name="uni2000" horiz-adv-x="486"/><glyph glyph-name="uni2001" horiz-adv-x="972"/><glyph glyph-name="uni2002" horiz-adv-x="486"/><glyph glyph-name="uni2003" horiz-adv-x="972"/><glyph glyph-name="uni2004" horiz-adv-x="324"/><glyph glyph-name="uni2005" horiz-adv-x="243"/><glyph glyph-name="uni2006" horiz-adv-x="162"/><glyph glyph-name="uni2007" horiz-adv-x="162"/><glyph glyph-name="uni2008" horiz-adv-x="121"/><glyph glyph-name="uni2009" horiz-adv-x="194"/><glyph glyph-name="uni200A" horiz-adv-x="54"/><glyph d="M386 224h-306v138h306v-138z" glyph-name="uni2010" horiz-adv-x="466" unicode="‐"/><glyph d="M386 224h-306v138h306v-138z" glyph-name="uni2011" horiz-adv-x="466" unicode="‑"/><glyph d="M386 224h-306v138h306v-138z" glyph-name="figuredash" horiz-adv-x="466" unicode="‒"/><glyph d="M562 224h-502v138h502v-138z" glyph-name="endash" horiz-adv-x="622" unicode="–"/><glyph d="M1042 224h-982v138h982v-138z" glyph-name="emdash" horiz-adv-x="1102" unicode="—"/><glyph d="M102 700h118v-10l-31 -247h-169v10z" glyph-name="quoteleft" horiz-adv-x="240" unicode="‘"/><glyph d="M138 443h-118v10l31 247h169v-10z" glyph-name="quoteright" horiz-adv-x="240" unicode="’"/><glyph d="M138 -144h-118v10l31 247h169v-10z" glyph-name="quotesinglbase" horiz-adv-x="240" unicode="‚"/><glyph d="M102 700h118v-10l-31 -247h-169v10zM312 700h118v-10l-31 -247h-169v10z" glyph-name="quotedblleft" horiz-adv-x="450" unicode="“"/><glyph d="M138 443h-118v10l31 247h169v-10zM348 443h-118v10l31 247h169v-10z" glyph-name="quotedblright" horiz-adv-x="450" unicode="”"/><glyph d="M138 -144h-118v10l31 247h169v-10zM348 -144h-118v10l31 247h169v-10z" glyph-name="quotedblbase" horiz-adv-x="450" unicode="„"/><glyph d="M294 587h110v-122h-110v-129l-20 -165h-94l-20 165v129h-110v122h110v113h134v-113z" glyph-name="dagger" horiz-adv-x="454" unicode="†"/><glyph d="M404 465h-117l-13 -115l14 -115h116v-122h-110v-113h-134v113h-110v122h116l14 115l-13 115h-117v122h110v113h134v-113h110v-122z" glyph-name="daggerdbl" horiz-adv-x="454" unicode="‡"/><glyph d="M193 156c-85 0 -133 54 -133 138c0 81 48 135 133 135c83 0 133 -55 133 -135c0 -83 -49 -138 -133 -138z" glyph-name="bullet" horiz-adv-x="386" unicode="•"/><glyph d="M204 0h-164v156h164v-156zM506 0h-164v156h164v-156zM806 0h-164v156h164v-156z" glyph-name="ellipsis" horiz-adv-x="846" unicode="…"/><glyph glyph-name="uni202F" horiz-adv-x="194"/><glyph d="M329 398c-30 -33 -71 -50 -122 -50s-92 17 -122 50s-45 77 -45 132s15 99 45 132s71 50 122 50s92 -17 122 -50s45 -77 45 -132s-15 -99 -45 -132zM246 0h-129v10l474 690h127v-10zM144 530c0 -56 21 -84 63 -84s63 28 63 84s-21 84 -63 84s-63 -28 -63 -84zM759 41 c-30 -33 -71 -50 -122 -50s-92 17 -122 50s-45 77 -45 132s15 99 45 132s71 50 122 50s92 -17 122 -50s45 -77 45 -132s-15 -99 -45 -132zM1139 41c-30 -33 -71 -50 -122 -50s-92 17 -122 50s-45 77 -45 132s15 99 45 132s71 50 122 50s92 -17 122 -50s45 -77 45 -132 s-15 -99 -45 -132zM574 173c0 -56 21 -84 63 -84s63 28 63 84s-21 84 -63 84s-63 -28 -63 -84zM954 173c0 -56 21 -84 63 -84s63 28 63 84s-21 84 -63 84s-63 -28 -63 -84z" glyph-name="perthousand" horiz-adv-x="1224" unicode="‰"/><glyph d="M332 66h-146l-166 212v10l166 212h146v-10l-140 -207l140 -207v-10z" glyph-name="guilsinglleft" horiz-adv-x="362" unicode="‹"/><glyph d="M176 66h-146v10l140 207l-140 207v10h146l166 -212v-10z" glyph-name="guilsinglright" horiz-adv-x="362" unicode="›"/><glyph d="M139 -100h-149v10l434 890h147v-10z" glyph-name="fraction" horiz-adv-x="561" unicode="⁄"/><glyph glyph-name="uni205F" horiz-adv-x="243"/><glyph d="M411 132c88 0 138 52 151 125h159c-7 -75 -39 -138 -96 -189s-128 -77 -214 -77c-167 0 -280 89 -321 229h-60v96h43c-1 7 -1 18 -1 33c0 11 0 20 1 26h-43v96h57c40 145 153 238 324 238c87 0 159 -26 216 -79s89 -117 94 -194h-160c-7 73 -58 131 -150 131 c-77 0 -130 -32 -157 -96h207l-20 -96h-208c-1 -5 -1 -14 -1 -26c0 -15 0 -26 1 -33h193l-20 -96h-149c29 -59 81 -88 154 -88z" glyph-name="Euro" horiz-adv-x="751" unicode="€"/><glyph d="M1089 520c0 -112 -67 -189 -183 -189s-182 76 -182 189s67 189 182 189s183 -76 183 -189zM225 0h-155v700h185l258 -457h4v457h156v-700h-186l-258 454h-4v-454zM839 520c0 -58 22 -87 67 -87s67 29 67 87s-22 87 -67 87s-67 -29 -67 -87zM1070 181h-326v111h326v-111z" glyph-name="uni2116" horiz-adv-x="1159" unicode="№"/><glyph d="M208 373h-84v252h-94v75h272v-75h-94v-252zM421 373h-77v327h92l87 -145h4l85 145h91v-327h-77v201h-4l-92 -148h-10l-95 150h-4v-203z" glyph-name="trademark" horiz-adv-x="730" unicode="™"/><glyph d="M491 247h-486v132h486v-132z" glyph-name="minus" horiz-adv-x="496" unicode="−"/><glyph d="M491 479v-132h-166l-52 -88h218v-132h-297l-27 -45h-102v10l21 35h-81v132h160l52 88h-212v132h291l33 55h102v-10l-27 -45h87z" glyph-name="notequal" horiz-adv-x="496" unicode="≠"/><glyph d="M490 314v-141l-460 154v150l460 154v-141l-308 -86v-4zM490 1h-460v132h460v-132z" glyph-name="lessequal" horiz-adv-x="520" unicode="≤"/><glyph d="M490 327l-460 -154v141l308 86v4l-308 86v141l460 -154v-150zM490 1h-460v132h460v-132z" glyph-name="greaterequal" horiz-adv-x="520" unicode="≥"/><glyph d="M0 0v525h525v-525h-525z" glyph-name="uni25FC" horiz-adv-x="525" unicode="◼"/><glyph d="M210 585h-164v156h164v-156zM204 0h-154v523h154v-523z" glyph-name="i.loclTRK" horiz-adv-x="244"/><glyph d="M237 -9c-65 0 -116 25 -155 75c-38 51 -57 116 -57 196c0 79 19 144 57 194c39 51 90 76 155 76c60 0 106 -20 139 -59h4l16 50h138v-523h-138l-16 50h-4c-33 -39 -79 -59 -139 -59zM387 262c0 90 -34 135 -103 135s-103 -45 -103 -135c0 -80 32 -136 103 -136 s103 56 103 136z" glyph-name="a.ss01"/><glyph d="M325 583h-110v10l66 146h160v-10zM237 -9c-65 0 -116 25 -155 75c-38 51 -57 116 -57 196c0 79 19 144 57 194c39 51 90 76 155 76c60 0 106 -20 139 -59h4l16 50h138v-523h-138l-16 50h-4c-33 -39 -79 -59 -139 -59zM387 262c0 90 -34 135 -103 135s-103 -45 -103 -135 c0 -80 32 -136 103 -136s103 56 103 136z" glyph-name="aacute.ss01"/><glyph d="M282 585c-103 0 -161 53 -161 149h108c2 -33 20 -50 53 -50s51 17 53 50h108c0 -96 -57 -149 -161 -149zM237 -9c-65 0 -116 25 -155 75c-38 51 -57 116 -57 196c0 79 19 144 57 194c39 51 90 76 155 76c60 0 106 -20 139 -59h4l16 50h138v-523h-138l-16 50h-4 c-33 -39 -79 -59 -139 -59zM387 262c0 90 -34 135 -103 135s-103 -45 -103 -135c0 -80 32 -136 103 -136s103 56 103 136z" glyph-name="abreve.ss01"/><glyph d="M366 585h-163l-94 142v10h118l55 -54h4l56 54h118v-10zM237 -9c-65 0 -116 25 -155 75c-38 51 -57 116 -57 196c0 79 19 144 57 194c39 51 90 76 155 76c60 0 106 -20 139 -59h4l16 50h138v-523h-138l-16 50h-4c-33 -39 -79 -59 -139 -59zM387 262c0 90 -34 135 -103 135 s-103 -45 -103 -135c0 -80 32 -136 103 -136s103 56 103 136z" glyph-name="uni01CE.ss01"/><glyph d="M227 585h-118v10l94 142h163l94 -142v-10h-118l-55 54h-4zM237 -9c-65 0 -116 25 -155 75c-38 51 -57 116 -57 196c0 79 19 144 57 194c39 51 90 76 155 76c60 0 106 -20 139 -59h4l16 50h138v-523h-138l-16 50h-4c-33 -39 -79 -59 -139 -59zM387 262 c0 90 -34 135 -103 135s-103 -45 -103 -135c0 -80 32 -136 103 -136s103 56 103 136z" glyph-name="acircumflex.ss01"/><glyph d="M249 600h-129v130h129v-130zM450 600h-129v130h129v-130zM237 -9c-65 0 -116 25 -155 75c-38 51 -57 116 -57 196c0 79 19 144 57 194c39 51 90 76 155 76c60 0 106 -20 139 -59h4l16 50h138v-523h-138l-16 50h-4c-33 -39 -79 -59 -139 -59zM387 262 c0 90 -34 135 -103 135s-103 -45 -103 -135c0 -80 32 -136 103 -136s103 56 103 136z" glyph-name="adieresis.ss01"/><glyph d="M364 583h-110l-116 146v10h160l66 -146v-10zM237 -9c-65 0 -116 25 -155 75c-38 51 -57 116 -57 196c0 79 19 144 57 194c39 51 90 76 155 76c60 0 106 -20 139 -59h4l16 50h138v-523h-138l-16 50h-4c-33 -39 -79 -59 -139 -59zM387 262c0 90 -34 135 -103 135 s-103 -45 -103 -135c0 -80 32 -136 103 -136s103 56 103 136z" glyph-name="agrave.ss01"/><glyph d="M430 607h-293v111h293v-111zM237 -9c-65 0 -116 25 -155 75c-38 51 -57 116 -57 196c0 79 19 144 57 194c39 51 90 76 155 76c60 0 106 -20 139 -59h4l16 50h138v-523h-138l-16 50h-4c-33 -39 -79 -59 -139 -59zM387 262c0 90 -34 135 -103 135s-103 -45 -103 -135 c0 -80 32 -136 103 -136s103 56 103 136z" glyph-name="amacron.ss01"/><glyph d="M534 523v-523c-48 -19 -85 -57 -85 -94c0 -28 16 -42 49 -42h36v-92h-70c-35 0 -67 9 -94 28c-27 18 -41 44 -41 78c0 50 24 91 73 122h-6l-16 50h-4c-33 -39 -79 -59 -139 -59c-65 0 -116 25 -155 75c-38 51 -57 116 -57 196c0 79 19 144 57 194c39 51 90 76 155 76 c60 0 106 -20 139 -59h4l16 50h138zM387 262c0 90 -34 135 -103 135s-103 -45 -103 -135c0 -80 32 -136 103 -136s103 56 103 136z" glyph-name="aogonek.ss01"/><glyph d="M281 568c-67 0 -117 48 -117 113c0 67 49 114 117 114c69 0 118 -47 118 -114s-49 -113 -118 -113zM280 639c59 -4 59 88 0 85c-56 3 -56 -89 0 -85zM237 -9c-65 0 -116 25 -155 75c-38 51 -57 116 -57 196c0 79 19 144 57 194c39 51 90 76 155 76c60 0 106 -20 139 -59 h4l16 50h138v-523h-138l-16 50h-4c-33 -39 -79 -59 -139 -59zM387 262c0 90 -34 135 -103 135s-103 -45 -103 -135c0 -80 32 -136 103 -136s103 56 103 136z" glyph-name="aring.ss01"/><glyph d="M336 583c-23 0 -45 6 -68 18l-15 8c-16 9 -28 13 -36 13c-18 0 -27 -12 -27 -37h-92v15c0 83 41 129 108 129c21 0 45 -6 70 -19l16 -8c17 -9 29 -13 36 -13c19 0 24 11 24 38h91v-15c0 -86 -36 -129 -107 -129zM237 -9c-65 0 -116 25 -155 75c-38 51 -57 116 -57 196 c0 79 19 144 57 194c39 51 90 76 155 76c60 0 106 -20 139 -59h4l16 50h138v-523h-138l-16 50h-4c-33 -39 -79 -59 -139 -59zM387 262c0 90 -34 135 -103 135s-103 -45 -103 -135c0 -80 32 -136 103 -136s103 56 103 136z" glyph-name="atilde.ss01"/><glyph d="M130 530h-100v170h150v-10z" glyph-name="caron.Slovak" horiz-adv-x="210"/></font>
</defs>
</svg>
